<?xml version="1.0" encoding="UTF-8"?>
<svg version="1.1" xmlns="http://www.w3.org/2000/svg" width="500" height="500">
<path d="M0 0 C165 0 330 0 500 0 C500 165 500 330 500 500 C335 500 170 500 0 500 C0 335 0 170 0 0 Z " fill="#FDFEFE" transform="translate(0,0)"/>
<path d="M0 0 C0 27.06 0 54.12 0 82 C-8.91 82.99 -8.91 82.99 -18 84 C-33.07359955 86.94918252 -46.13291888 91.50772646 -59 100 C-59.66 100 -60.32 100 -61 100 C-61.16245876 90.34230843 -61.28670342 80.68508979 -61.3626852 71.02632809 C-61.3991602 66.54090421 -61.44860264 62.05641764 -61.52807617 57.5715332 C-61.60434524 53.24019274 -61.64603341 48.90975154 -61.6641407 44.57779121 C-61.67703779 42.92831838 -61.70222444 41.27889273 -61.7401104 39.62980461 C-62.02447873 26.73465453 -62.02447873 26.73465453 -59.50422668 22.46734619 C-57.75621143 20.68018992 -56.10396422 19.3374887 -54 18 C-52.97519531 17.25492188 -51.95039063 16.50984375 -50.89453125 15.7421875 C-35.50201424 6.41693638 -18.22274729 0 0 0 Z " fill="#113764" transform="translate(314,142)"/>
<path d="M0 0 C8.49556906 0 14.47244153 0.13047954 22.25 2.5 C23.59735229 2.90049561 23.59735229 2.90049561 24.97192383 3.30908203 C38.65818665 7.56303538 50.77939619 13.77939619 61 24 C61.18769518 26.43937054 61.25198605 28.76414728 61.22705078 31.20361328 C61.22734283 31.9451767 61.22763489 32.68674011 61.22793579 33.45077515 C61.22653994 35.90740571 61.21096698 38.36373478 61.1953125 40.8203125 C61.19158327 42.52139114 61.18873587 44.22247192 61.18673706 45.92355347 C61.17909349 50.40510976 61.15943884 54.88653683 61.1373291 59.36804199 C61.11688622 63.93935396 61.10773868 68.51068677 61.09765625 73.08203125 C61.07619359 82.05474434 61.04204896 91.02736143 61 100 C60.17634949 99.51621384 59.35269897 99.03242767 58.50408936 98.53398132 C56.88316376 97.58456413 56.88316376 97.58456413 55.22949219 96.6159668 C54.15834167 95.98780563 53.08719116 95.35964447 51.98358154 94.71244812 C35.6112541 85.31543284 18.75370758 82.97407448 0 81 C0 54.27 0 27.54 0 0 Z " fill="#103664" transform="translate(187,143)"/>
<path d="M0 0 C1.98 0.66 3.96 1.32 6 2 C6 26.42 6 50.84 6 76 C10.29 76 14.58 76 19 76 C37.29906275 78.07943895 57.10289051 83.32473756 71.0625 95.77734375 C72.89667083 97.19656175 72.89667083 97.19656175 74.96875 96.890625 C77.42993031 95.8114921 79.35425434 94.43253797 81.5 92.8125 C100.03388782 79.6202567 120.60079854 76 143 76 C143 51.25 143 26.5 143 1 C144.98 0.67 146.96 0.34 149 0 C149 2.64 149 5.28 149 8 C151.31 8 153.62 8 156 8 C156 11.3 156 14.6 156 18 C154.68 18 153.36 18 152 18 C152 16.68 152 15.36 152 14 C151.01 14 150.02 14 149 14 C149 17.3 149 20.6 149 24 C151.31 24 153.62 24 156 24 C156 26.31 156 28.62 156 31 C153.69 31 151.38 31 149 31 C149 32.98 149 34.96 149 37 C151.31 37 153.62 37 156 37 C156 38.65 156 40.3 156 42 C157.32 42 158.64 42 160 42 C160 43.65 160 45.3 160 47 C158.68 47 157.36 47 156 47 C156 47.66 156 48.32 156 49 C154.68 49 153.36 49 152 49 C152 47.02 152 45.04 152 43 C151.01 43 150.02 43 149 43 C149 47.29 149 51.58 149 56 C151.31 56 153.62 56 156 56 C156 57.98 156 59.96 156 62 C153.69 62 151.38 62 149 62 C149 68.27 149 74.54 149 81 C146.710625 81.2475 144.42125 81.495 142.0625 81.75 C119.94427162 84.42129467 99.24217927 91.38453725 80.81982422 104.05395508 C77.48573082 106.29136956 76.14599907 107 72 107 C69.984375 105.75 69.984375 105.75 67.75 104 C63.29726052 100.74480264 58.74202848 98.18399742 53.8125 95.75 C53.14766602 95.42128906 52.48283203 95.09257812 51.79785156 94.75390625 C49.87353785 93.81708189 47.94003341 92.90376426 46 92 C44.36998047 91.23816406 44.36998047 91.23816406 42.70703125 90.4609375 C37.84983836 88.54672239 32.923365 87.18893542 27.875 85.875 C26.85688232 85.60856689 25.83876465 85.34213379 24.78979492 85.06762695 C18.28400243 83.42447806 12.14525097 82.29641444 5.42578125 82.10546875 C3 82 3 82 -1 81 C-1 75.06 -1 69.12 -1 63 C-2.98 63 -4.96 63 -7 63 C-7 60.69 -7 58.38 -7 56 C-4.69 56 -2.38 56 0 56 C0 51.71 0 47.42 0 43 C-1.32 43 -2.64 43 -4 43 C-4 44.98 -4 46.96 -4 49 C-4.99 49 -5.98 49 -7 49 C-7 48.01 -7 47.02 -7 46 C-8.65 46 -10.3 46 -12 46 C-12 44.68 -12 43.36 -12 42 C-10.68 42 -9.36 42 -8 42 C-8 40.35 -8 38.7 -8 37 C-5.69 37 -3.38 37 -1 37 C-1 35.02 -1 33.04 -1 31 C-2.98 31 -4.96 31 -7 31 C-7 28.69 -7 26.38 -7 24 C-4.69 24 -2.38 24 0 24 C0 20.7 0 17.4 0 14 C-0.99 14 -1.98 14 -3 14 C-3 15.32 -3 16.64 -3 18 C-4.32 18 -5.64 18 -7 18 C-7 15.03 -7 12.06 -7 9 C-4.69 9 -2.38 9 0 9 C0 6.03 0 3.06 0 0 Z " fill="#183B65" transform="translate(176,152)"/>
<path d="M0 0 C2.64 0 5.28 0 8 0 C8 0.99 8 1.98 8 3 C6.68 3 5.36 3 4 3 C4 5.64 4 8.28 4 11 C5.32 11 6.64 11 8 11 C8.495 14.465 8.495 14.465 9 18 C9.185625 16.1746875 9.185625 16.1746875 9.375 14.3125 C9.78891306 10.93520941 10.54573451 8.10243305 12 5 C12.66 5 13.32 5 14 5 C14 4.01 14 3.02 14 2 C14.99 2 15.98 2 17 2 C17 4.64 17 7.28 17 10 C16.01 10 15.02 10 14 10 C14 14.29 14 18.58 14 23 C15.32 23 16.64 23 18 23 C18.495 25.475 18.495 25.475 19 28 C20.1446875 26.7625 20.1446875 26.7625 21.3125 25.5 C24 23 24 23 27 23 C27 19.04 27 15.08 27 11 C26.01 11 25.02 11 24 11 C24 8.03 24 5.06 24 2 C24.99 2 25.98 2 27 2 C27 2.99 27 3.98 27 5 C28.32 5 29.64 5 31 5 C31 9.29 31 13.58 31 18 C31.99 18 32.98 18 34 18 C34 15.36 34 12.72 34 10 C34.66 10 35.32 10 36 10 C36 8.02 36 6.04 36 4 C35.01 4 34.02 4 33 4 C33 2.68 33 1.36 33 0 C35.31 0 37.62 0 40 0 C40.10891112 6.36525019 39.95818042 12.580012 39.21875 18.90625 C38.93325537 21.63884147 38.75227856 23.50455713 40 26 C39.26394531 26.44730469 38.52789062 26.89460938 37.76953125 27.35546875 C36.79371094 27.96003906 35.81789063 28.56460938 34.8125 29.1875 C33.84957031 29.77917969 32.88664062 30.37085938 31.89453125 30.98046875 C25.96509298 35.02993666 25.96509298 35.02993666 23.36076355 41.44856262 C23.32878972 42.78280652 23.32373056 44.11787195 23.34057617 45.45239258 C23.33009247 46.1846405 23.31960876 46.91688843 23.30880737 47.67132568 C23.2801216 50.07949535 23.28634061 52.48622179 23.29296875 54.89453125 C23.27984966 56.56892188 23.26454478 58.24329668 23.24714661 59.91764832 C23.20730786 64.31534173 23.19710693 68.71262105 23.19311523 73.11047363 C23.18378161 77.60177157 23.14636667 82.09282642 23.11132812 86.58398438 C23.04676377 95.3893274 23.01351434 104.19443134 23 113 C24.07161377 112.38366699 25.14322754 111.76733398 26.24731445 111.13232422 C27.68166638 110.3145383 29.11616306 109.49700623 30.55078125 108.6796875 C31.25368286 108.27451904 31.95658447 107.86935059 32.68078613 107.4519043 C46.03346862 99.86908951 62.43530224 94.749211 77.875 94.9375 C79.32519531 94.95103516 79.32519531 94.95103516 80.8046875 94.96484375 C81.52914062 94.97644531 82.25359375 94.98804688 83 95 C83 95.33 83 95.66 83 96 C81.35 96.33 79.7 96.66 78 97 C81.3 97.33 84.6 97.66 88 98 C88 73.91 88 49.82 88 25 C88.33 25 88.66 25 89 25 C89 49.42 89 73.84 89 99 C81.74 99.66 74.48 100.32 67 101 C61.81904201 102.18647893 57.00749319 103.36699079 52 105 C50.56333984 105.44666016 50.56333984 105.44666016 49.09765625 105.90234375 C40.41510622 108.80483178 31.27289627 112.80326449 24.4375 119 C22 121 22 121 20.12890625 120.82421875 C17.56082202 119.82996963 15.69824756 118.4721769 13.5 116.8125 C4.73683454 110.60736838 -4.08924573 106.71466386 -14.375 103.75 C-15.19258789 103.5037085 -16.01017578 103.25741699 -16.85253906 103.00366211 C-27.25775228 100.18420383 -36.8919151 100.0098259 -48 99 C-48 74.58 -48 50.16 -48 25 C-47.34 25.99 -46.68 26.98 -46 28 C-44.05909174 26.05909174 -44.60080565 22.52706098 -44.4375 19.9375 C-44.35371094 18.64714844 -44.26992187 17.35679687 -44.18359375 16.02734375 C-44.12300781 15.02832031 -44.06242188 14.02929688 -44 13 C-41.36 13 -38.72 13 -36 13 C-36 13.33 -36 13.66 -36 14 C-38.31 14 -40.62 14 -43 14 C-43 40.73 -43 67.46 -43 95 C-39.04 95 -35.08 95 -31 95 C-27.1875 95.55078125 -27.1875 95.55078125 -24 96.3125 C-22.82179687 96.59351563 -21.64359375 96.87453125 -20.4296875 97.1640625 C-19.29789063 97.43992187 -18.16609375 97.71578125 -17 98 C-15.51886719 98.29003906 -15.51886719 98.29003906 -14.0078125 98.5859375 C-2.64938084 100.95612514 7.43940108 106.59191151 17 113 C17.18566598 103.34236938 17.32765865 93.68535637 17.41449738 84.02632809 C17.45618448 79.54075357 17.51268903 75.05640318 17.60351562 70.5715332 C17.69068084 66.2401643 17.73832285 61.90996972 17.75901794 57.57779121 C17.77375787 55.92827431 17.80254415 54.27881908 17.84584045 52.62980461 C18.34788435 43.61433095 18.34788435 43.61433095 15.25654602 35.45196533 C13.24934969 33.66728924 11.336418 32.31120544 9 31 C8.14792969 30.39929688 7.29585937 29.79859375 6.41796875 29.1796875 C-1.65701264 24.45631835 -9.87335377 20.23095797 -19 18 C-19 17.67 -19 17.34 -19 17 C-15.97265625 16.75585938 -15.97265625 16.75585938 -12.9453125 16.51171875 C-10.60480784 16.12606964 -10.60480784 16.12606964 -9 13 C-8.01 13 -7.02 13 -6 13 C-6 12.01 -6 11.02 -6 10 C-4.35 9.34 -2.7 8.68 -1 8 C-0.67 5.36 -0.34 2.72 0 0 Z " fill="#F7FAFB" transform="translate(230,129)"/>
<path d="M0 0 C2.31871189 1.40832826 3.9965715 3.13634558 6 5 C7.98 3.35 9.96 1.7 12 0 C15.50176776 1.03813469 16.1105941 2.20005844 17.921875 5.4765625 C18.54419003 6.85360001 19.15319215 8.23671736 19.75 9.625 C20.22373047 10.68460937 20.22373047 10.68460937 20.70703125 11.765625 C21.48284842 13.50533624 22.242972 15.25203087 23 17 C23 14.03 23 11.06 23 8 C21.68 7.67 20.36 7.34 19 7 C20.33332095 3.00003714 22.4957827 2.16217663 26 0 C29.875 1.875 29.875 1.875 31 3 C31.5581193 7.85838275 31.5813277 11.83734461 29.375 16.25 C28.59125 17.1575 27.8075 18.065 27 19 C26.51789063 19.57105469 26.03578125 20.14210938 25.5390625 20.73046875 C24 22.4375 24 22.4375 21 25 C19.046875 25.09375 19.046875 25.09375 17 24 C15.55619742 21.67876455 14.38717688 19.52475638 13.25 17.0625 C12.93417969 16.41603516 12.61835938 15.76957031 12.29296875 15.10351562 C10 10.32401583 10 10.32401583 10 8 C8.68 8 7.36 8 6 8 C5.9071875 9.5778125 5.9071875 9.5778125 5.8125 11.1875 C4.83583464 15.77031438 3.53478392 17.01507135 0 20 C-0.50273437 20.47953125 -1.00546875 20.9590625 -1.5234375 21.453125 C-5.34167919 24.98063762 -5.34167919 24.98063762 -8.125 25.0625 C-11.72288644 23.02369769 -13.69187332 20.92438005 -15 17 C-15.92833758 12.10512914 -15.92833758 12.10512914 -15 9 C-11.09963161 4.20981373 -6.65451894 -1.13827298 0 0 Z " fill="#143D71" transform="translate(199,273)"/>
<path d="M0 0 C1.98 0.66 3.96 1.32 6 2 C6 26.09 6 50.18 6 75 C4.35 75 2.7 75 1 75 C1 76.65 1 78.3 1 80 C0.67 80 0.34 80 0 80 C0 74.06 0 68.12 0 62 C-2.31 62 -4.62 62 -7 62 C-7 60.02 -7 58.04 -7 56 C-4.69 56 -2.38 56 0 56 C0 51.71 0 47.42 0 43 C-1.32 43 -2.64 43 -4 43 C-4 44.98 -4 46.96 -4 49 C-4.99 49 -5.98 49 -7 49 C-7 48.01 -7 47.02 -7 46 C-8.65 46 -10.3 46 -12 46 C-12 44.68 -12 43.36 -12 42 C-10.68 42 -9.36 42 -8 42 C-8 40.35 -8 38.7 -8 37 C-5.69 37 -3.38 37 -1 37 C-1 35.02 -1 33.04 -1 31 C-2.98 31 -4.96 31 -7 31 C-7 28.69 -7 26.38 -7 24 C-4.69 24 -2.38 24 0 24 C0 20.7 0 17.4 0 14 C-0.99 14 -1.98 14 -3 14 C-3 15.32 -3 16.64 -3 18 C-4.32 18 -5.64 18 -7 18 C-7 15.03 -7 12.06 -7 9 C-4.69 9 -2.38 9 0 9 C0 6.03 0 3.06 0 0 Z " fill="#123762" transform="translate(176,152)"/>
<path d="M0 0 C2.64 0 5.28 0 8 0 C8 0.33 8 0.66 8 1 C5.69 1 3.38 1 1 1 C1 27.73 1 54.46 1 82 C4.96 82 8.92 82 13 82 C16.8125 82.55078125 16.8125 82.55078125 20 83.3125 C21.17820313 83.59351563 22.35640625 83.87453125 23.5703125 84.1640625 C24.70210937 84.43992187 25.83390625 84.71578125 27 85 C28.48113281 85.29003906 28.48113281 85.29003906 29.9921875 85.5859375 C40.73771226 87.82822858 51.64835514 92.80696483 60 100 C59.34 100 58.68 100 58 100 C58 100.66 58 101.32 58 102 C58.66 102 59.32 102 60 102 C59.505 103.485 59.505 103.485 59 105 C58.42894531 104.55269531 57.85789063 104.10539062 57.26953125 103.64453125 C50.55322857 98.63666804 43.94224627 95.59078621 36 93 C35.34531738 92.78069824 34.69063477 92.56139648 34.01611328 92.33544922 C21.1557218 88.10111463 9.85796333 87.25981485 -4 86 C-4 61.58 -4 37.16 -4 12 C-3.01 13.485 -3.01 13.485 -2 15 C-0.05909174 13.05909174 -0.60080565 9.52706098 -0.4375 6.9375 C-0.35371094 5.64714844 -0.26992187 4.35679687 -0.18359375 3.02734375 C-0.12300781 2.02832031 -0.06242188 1.02929688 0 0 Z " fill="#E0E7ED" transform="translate(186,142)"/>
<path d="M0 0 C0.33 0 0.66 0 1 0 C1 24.42 1 48.84 1 74 C-9.89 74.99 -9.89 74.99 -21 76 C-26.18095799 77.18647893 -30.99250681 78.36699079 -36 80 C-36.95777344 80.29777344 -37.91554688 80.59554687 -38.90234375 80.90234375 C-47.58489378 83.80483178 -56.72710373 87.80326449 -63.5625 94 C-66 96 -66 96 -68.25 95.9375 C-70 95 -70 95 -72 93 C-72 92.01 -72 91.02 -72 90 C-72.66 90 -73.32 90 -74 90 C-74 89.34 -74 88.68 -74 88 C-73.01 88 -72.02 88 -71 88 C-70.67 63.58 -70.34 39.16 -70 14 C-69.67 14 -69.34 14 -69 14 C-68.67 38.75 -68.34 63.5 -68 89 C-67.34 89 -66.68 89 -66 89 C-66 64.25 -66 39.5 -66 14 C-65.67 14 -65.34 14 -65 14 C-65 38.42 -65 62.84 -65 88 C-59.72 85.03 -54.44 82.06 -49 79 C-36.75920771 74.10368309 -23.45524921 69.77493599 -10.125 69.9375 C-8.67480469 69.95103516 -8.67480469 69.95103516 -7.1953125 69.96484375 C-6.47085938 69.97644531 -5.74640625 69.98804688 -5 70 C-5 70.33 -5 70.66 -5 71 C-6.65 71.33 -8.3 71.66 -10 72 C-6.7 72.33 -3.4 72.66 0 73 C0 48.91 0 24.82 0 0 Z " fill="#D1DDE6" transform="translate(318,154)"/>
<path d="M0 0 C2.64 0 5.28 0 8 0 C8 0.99 8 1.98 8 3 C6.68 3 5.36 3 4 3 C4 5.64 4 8.28 4 11 C5.32 11 6.64 11 8 11 C8.33 13.31 8.66 15.62 9 18 C9.12375 16.783125 9.2475 15.56625 9.375 14.3125 C9.78891306 10.93520941 10.54573451 8.10243305 12 5 C12.66 5 13.32 5 14 5 C14 4.01 14 3.02 14 2 C14.99 2 15.98 2 17 2 C17 4.64 17 7.28 17 10 C16.01 10 15.02 10 14 10 C14 14.29 14 18.58 14 23 C14.99 23 15.98 23 17 23 C17.40178571 31.03571429 17.40178571 31.03571429 14 35 C13.21238281 34.41992188 12.42476562 33.83984375 11.61328125 33.2421875 C2.21884531 26.45472937 -7.58679739 20.65423316 -19 18 C-19 17.67 -19 17.34 -19 17 C-15.97265625 16.75585938 -15.97265625 16.75585938 -12.9453125 16.51171875 C-10.60480784 16.12606964 -10.60480784 16.12606964 -9 13 C-8.01 13 -7.02 13 -6 13 C-6 12.01 -6 11.02 -6 10 C-4.35 9.34 -2.7 8.68 -1 8 C-0.67 5.36 -0.34 2.72 0 0 Z " fill="#EBF3F5" transform="translate(230,129)"/>
<path d="M0 0 C2.2861923 1.70092707 3.79691624 3.0781682 4.42382812 5.92382812 C4.61741254 8.20404881 4.70826216 10.46200759 4.75 12.75 C4.77964844 13.54277344 4.80929687 14.33554687 4.83984375 15.15234375 C4.91027787 17.10102094 4.95743482 19.05051495 5 21 C5.37511719 20.43410156 5.75023437 19.86820312 6.13671875 19.28515625 C10.33102292 13.27367244 10.33102292 13.27367244 13.75 11.875 C16 12 16 12 18 14 C18.14507695 16.74485593 18.18652423 19.38480543 18.125 22.125 C18.11597656 22.87910156 18.10695313 23.63320313 18.09765625 24.41015625 C18.0740687 26.27357254 18.03819719 28.13682593 18 30 C18.99 30 19.98 30 21 30 C19.54744301 33.82946843 17.57104439 35.12050295 14 37 C11.54394629 34.44725126 11.01197061 33.14109357 10.70703125 29.546875 C10.74183594 28.29390625 10.77664063 27.0409375 10.8125 25.75 C10.83957031 24.48671875 10.86664063 23.2234375 10.89453125 21.921875 C10.92933594 20.95765625 10.96414063 19.9934375 11 19 C8.59424393 21.18517099 7.20464419 23.25919671 5.8125 26.1875 C5.46832031 26.90292969 5.12414062 27.61835938 4.76953125 28.35546875 C4.38861328 29.16951172 4.38861328 29.16951172 4 30 C4.99 30 5.98 30 7 30 C5.54744301 33.82946843 3.57104439 35.12050295 0 37 C-2.5916327 33.25453775 -3.36579572 30.80126654 -3.29296875 26.26171875 C-3.2784668 24.66166992 -3.2784668 24.66166992 -3.26367188 23.02929688 C-3.23853516 21.92650391 -3.21339844 20.82371094 -3.1875 19.6875 C-3.17396484 18.56537109 -3.16042969 17.44324219 -3.14648438 16.28710938 C-3.1112138 13.52424771 -3.06192235 10.76237171 -3 8 C-4.32 8 -5.64 8 -7 8 C-5.50902342 4.2047869 -3.24299151 2.38957269 0 0 Z " fill="#113B70" transform="translate(362,261)"/>
<path d="M0 0 C2.31 0 4.62 0 7 0 C7.33 4.29 7.66 8.58 8 13 C9.32 12.67 10.64 12.34 12 12 C12.33 12.33 12.66 12.66 13 13 C14.35129417 13.14347027 15.70886177 13.22862535 17.06640625 13.2890625 C27.71529544 13.91267285 37.62576942 15.34226791 47.875 18.375 C48.8657251 18.66713379 49.8564502 18.95926758 50.87719727 19.26025391 C56.57541107 21.02677302 61.74352087 23.17914713 67 26 C63.25 28 63.25 28 61 28 C61 28.66 61 29.32 61 30 C61.66 30.33 62.32 30.66 63 31 C60.0748477 32.02775621 57.87550971 32.35892544 54.9609375 31.1640625 C54.16945312 30.75929687 53.37796875 30.35453125 52.5625 29.9375 C40.43955327 24.00074831 25.91146036 20.48868832 12.42578125 20.10546875 C10 20 10 20 6 19 C6 13.06 6 7.12 6 1 C4.02 1 2.04 1 0 1 C0 0.67 0 0.34 0 0 Z " fill="#21446F" transform="translate(169,214)"/>
<path d="M0 0 C0 2.64 0 5.28 0 8 C2.31 8 4.62 8 7 8 C7 11.3 7 14.6 7 18 C5.68 18 4.36 18 3 18 C3 16.68 3 15.36 3 14 C2.01 14 1.02 14 0 14 C0 17.3 0 20.6 0 24 C2.31 24 4.62 24 7 24 C7 26.31 7 28.62 7 31 C4.69 31 2.38 31 0 31 C0 32.98 0 34.96 0 37 C2.31 37 4.62 37 7 37 C7 38.65 7 40.3 7 42 C8.32 42 9.64 42 11 42 C11 43.65 11 45.3 11 47 C9.68 47 8.36 47 7 47 C7 47.66 7 48.32 7 49 C5.68 49 4.36 49 3 49 C3 47.02 3 45.04 3 43 C2.01 43 1.02 43 0 43 C0 46.96 0 50.92 0 55 C-0.33 55 -0.66 55 -1 55 C-1.33 51.04 -1.66 47.08 -2 43 C-2.66 43 -3.32 43 -4 43 C-4.33 43.66 -4.66 44.32 -5 45 C-4.99476318 44.0934668 -4.98952637 43.18693359 -4.98413086 42.25292969 C-4.9669037 38.83104798 -4.95446095 35.40921357 -4.94506836 31.98730469 C-4.94009544 30.51724512 -4.93331473 29.04719035 -4.92456055 27.57714844 C-4.87292152 18.67093501 -5.0568142 9.86828584 -6 1 C-3 0 -3 0 0 0 Z " fill="#133763" transform="translate(325,152)"/>
<path d="M0 0 C0.99 0.33 1.98 0.66 3 1 C4.1875 4.0625 4.1875 4.0625 5 7 C6.98 4.69 8.96 2.38 11 0 C13.4375 0.375 13.4375 0.375 16 1 C17.53266582 4.06533164 17.10276471 7.26754272 17.0625 10.625 C17.05798828 11.33140625 17.05347656 12.0378125 17.04882812 12.765625 C17.03703875 14.51045275 17.01910324 16.255237 17 18 C17.99 18 18.98 18 20 18 C18.54744301 21.82946843 16.57104439 23.12050295 13 25 C9.86892164 21.61416198 9.66449222 19.28890538 9.8125 14.75 C9.83957031 13.67234375 9.86664063 12.5946875 9.89453125 11.484375 C9.92933594 10.66453125 9.96414062 9.8446875 10 9 C6.93107766 9.67171444 6.93107766 9.67171444 5.8125 11.875 C4.82143127 14.08785353 4.82143127 14.08785353 5 17 C5.99 17.33 6.98 17.66 8 18 C8 18.66 8 19.32 8 20 C5.1875 22.6875 5.1875 22.6875 2 25 C-1 24 -1 24 -3 21 C-3.1953125 17.86328125 -3.1953125 17.86328125 -3.125 14.3125 C-3.09792969 12.54326172 -3.09792969 12.54326172 -3.0703125 10.73828125 C-3.03550781 9.38283203 -3.03550781 9.38283203 -3 8 C-4.32 8 -5.64 8 -7 8 C-5.51218185 4.21282653 -3.38011591 2.22592999 0 0 Z " fill="#163F73" transform="translate(163,273)"/>
<path d="M0 0 C3.875 3.75 3.875 3.75 5 6 C5.556875 5.195625 6.11375 4.39125 6.6875 3.5625 C9 1 9 1 11.625 0.0625 C12.40875 0.041875 13.1925 0.02125 14 0 C16.84614024 2.84614024 16.45579076 5.80369142 16.625 9.625 C16.66367188 10.33140625 16.70234375 11.0378125 16.7421875 11.765625 C16.83647724 13.50998524 16.91932891 15.25495691 17 17 C17.99 17.33 18.98 17.66 20 18 C20 18.66 20 19.32 20 20 C17.1875 22.6875 17.1875 22.6875 14 25 C11 24 11 24 9.8203125 22.296875 C8.8180756 19.49061169 8.80421279 17.22306264 8.875 14.25 C8.89304688 13.26515625 8.91109375 12.2803125 8.9296875 11.265625 C8.95289063 10.51796875 8.97609375 9.7703125 9 9 C5.7457985 11.83430453 4.4793247 13.68607774 4 18 C4.99 18 5.98 18 7 18 C5.54744301 21.82946843 3.57104439 23.12050295 0 25 C-2.34290892 22.51565563 -2.97982934 21.22268407 -3.29296875 17.765625 C-3.25816406 16.60546875 -3.22335938 15.4453125 -3.1875 14.25 C-3.16042969 13.07953125 -3.13335937 11.9090625 -3.10546875 10.703125 C-3.07066406 9.81109375 -3.03585938 8.9190625 -3 8 C-4.32 8 -5.64 8 -7 8 C-5.50902342 4.2047869 -3.24299151 2.38957269 0 0 Z " fill="#153F72" transform="translate(137,273)"/>
<path d="M0 0 C2.671875 1.62109375 2.671875 1.62109375 5 4 C5.6015625 7.1640625 5.6015625 7.1640625 5.625 10.625 C5.60281133 14.01222825 5.60281133 14.01222825 6 17 C6.99 17.66 7.98 18.32 9 19 C6.69 20.98 4.38 22.96 2 25 C1.01 24.34 0.02 23.68 -1 23 C-1 22.34 -1 21.68 -1 21 C-2.0725 21.680625 -3.145 22.36125 -4.25 23.0625 C-7.66674101 25.009007 -7.66674101 25.009007 -10.3125 24.9375 C-12 24 -12 24 -14 21 C-14.5625 18.1875 -14.5625 18.1875 -14 15 C-11.97082612 12.5483132 -9.76321208 10.58379229 -7 9 C-5.68 9 -4.36 9 -3 9 C-3 8.34 -3 7.68 -3 7 C-6.63 7 -10.26 7 -14 7 C-14 5 -14 5 -12.71484375 3.7109375 C-8.42064542 0.4832104 -5.54542296 -0.92423716 0 0 Z " fill="#133D71" transform="translate(246,273)"/>
<path d="M0 0 C3.50176776 1.03813469 4.1105941 2.20005844 5.921875 5.4765625 C6.54419003 6.85360001 7.15319215 8.23671736 7.75 9.625 C8.06582031 10.33140625 8.38164062 11.0378125 8.70703125 11.765625 C9.48284842 13.50533624 10.242972 15.25203087 11 17 C11 14.03 11 11.06 11 8 C9.68 7.67 8.36 7.34 7 7 C8.33332095 3.00003714 10.4957827 2.16217663 14 0 C17.875 1.875 17.875 1.875 19 3 C19.5581193 7.85838275 19.5813277 11.83734461 17.375 16.25 C16.59125 17.1575 15.8075 18.065 15 19 C14.51789063 19.57105469 14.03578125 20.14210938 13.5390625 20.73046875 C12 22.4375 12 22.4375 9 25 C7.046875 25.09375 7.046875 25.09375 5 24 C3.55619742 21.67876455 2.38717688 19.52475638 1.25 17.0625 C0.77626953 16.09280273 0.77626953 16.09280273 0.29296875 15.10351562 C-2 10.32401583 -2 10.32401583 -2 8 C-3.65 8 -5.3 8 -7 8 C-5.61918777 3.8575633 -3.40174442 2.67796901 0 0 Z " fill="#174073" transform="translate(211,273)"/>
<path d="M0 0 C2.31 0 4.62 0 7 0 C7.10891112 6.36525019 6.95818042 12.580012 6.21875 18.90625 C5.93325537 21.63884147 5.75227856 23.50455713 7 26 C1.06 29.465 1.06 29.465 -5 33 C-5.495 31.515 -5.495 31.515 -6 30 C-6.99 30 -7.98 30 -9 30 C-9 27.69 -9 25.38 -9 23 C-8.01 23 -7.02 23 -6 23 C-6 19.04 -6 15.08 -6 11 C-6.99 11 -7.98 11 -9 11 C-9 8.03 -9 5.06 -9 2 C-8.01 2 -7.02 2 -6 2 C-6 2.99 -6 3.98 -6 5 C-4.68 5 -3.36 5 -2 5 C-2 9.29 -2 13.58 -2 18 C-1.01 18 -0.02 18 1 18 C1 15.36 1 12.72 1 10 C1.66 10 2.32 10 3 10 C3 8.02 3 6.04 3 4 C2.01 4 1.02 4 0 4 C0 2.68 0 1.36 0 0 Z " fill="#E2F2F7" transform="translate(263,129)"/>
<path d="M0 0 C0.94101562 0.00322266 1.88203125 0.00644531 2.8515625 0.00976562 C3.83640625 0.01814453 4.82125 0.02652344 5.8359375 0.03515625 C6.82851563 0.03966797 7.82109375 0.04417969 8.84375 0.04882812 C11.2995391 0.0606348 13.75520854 0.07710225 16.2109375 0.09765625 C16.2109375 0.75765625 16.2109375 1.41765625 16.2109375 2.09765625 C12.38058036 5.92801339 12.38058036 5.92801339 10.2109375 7.09765625 C8.2309375 7.09765625 6.2509375 7.09765625 4.2109375 7.09765625 C4.2109375 13.36765625 4.2109375 19.63765625 4.2109375 26.09765625 C5.5309375 26.42765625 6.8509375 26.75765625 8.2109375 27.09765625 C5.9009375 29.07765625 3.5909375 31.05765625 1.2109375 33.09765625 C-1.29647091 30.98935091 -2.66177981 29.816735 -3.24316406 26.53222656 C-3.21174316 25.11828613 -3.21174316 25.11828613 -3.1796875 23.67578125 C-3.16035156 22.13857422 -3.16035156 22.13857422 -3.140625 20.5703125 C-3.10710937 19.50683594 -3.07359375 18.44335938 -3.0390625 17.34765625 C-3.02101563 16.26871094 -3.00296875 15.18976563 -2.984375 14.078125 C-2.93727665 11.41706837 -2.8715185 8.75781371 -2.7890625 6.09765625 C-5.7590625 6.09765625 -8.7290625 6.09765625 -11.7890625 6.09765625 C-5.81363252 -0.03502188 -5.81363252 -0.03502188 0 0 Z " fill="#123C70" transform="translate(301.7890625,264.90234375)"/>
<path d="M0 0 C2.8125 2.25 2.8125 2.25 5 5 C5 6.32 5 7.64 5 9 C3.25 10.66796875 3.25 10.66796875 1 12.1875 C-0.34422229 13.10931911 -1.68066857 14.04289572 -3 15 C-3 15.33 -3 15.66 -3 16 C-0.36 16.33 2.28 16.66 5 17 C-1.20440882 23.37675351 -1.20440882 23.37675351 -4 25 C-6 25 -6 25 -8 24 C-11.92133438 19.84799889 -13.91286915 16.35253305 -14.125 10.625 C-12.15938954 4.29136629 -6.99277979 -0.96334892 0 0 Z " fill="#194275" transform="translate(330,273)"/>
<path d="M0 0 C2.4375 1.8125 2.4375 1.8125 4 4 C3.7531213 6.61061097 3.24739578 7.7465406 1.40625 9.6328125 C0.7771875 10.12523437 0.148125 10.61765625 -0.5 11.125 C-3.1880384 13.19887681 -3.1880384 13.19887681 -5 16 C-1.04 15.505 -1.04 15.505 3 15 C3 18 3 18 1.390625 19.640625 C0.68421875 20.17171875 -0.0221875 20.7028125 -0.75 21.25 C-1.44609375 21.79140625 -2.1421875 22.3328125 -2.859375 22.890625 C-5 24 -5 24 -7.09765625 23.85546875 C-10.78132069 22.19895435 -13.22707338 18.54585324 -15 15 C-15.5905955 11.30877814 -15.64212477 8.94805857 -13.5078125 5.796875 C-6.92222451 -1.79977837 -6.92222451 -1.79977837 0 0 Z " fill="#194175" transform="translate(288,274)"/>
<path d="M0 0 C3 1 3 1 4 3 C4.04022391 5.3329866 4.04320247 7.66706666 4 10 C6.31 10 8.62 10 11 10 C10.3125 11.9375 10.3125 11.9375 9 14 C7.35 14.33 5.7 14.66 4 15 C4 18.96 4 22.92 4 27 C5.98 27 7.96 27 10 27 C6.88983545 30.28788824 3.98381075 32.83735988 0 35 C-2.67733998 32.32968716 -3.00280229 30.96278559 -3.29296875 27.109375 C-3.27314945 25.65595991 -3.23754845 24.20268833 -3.1875 22.75 C-3.17396484 22.00492187 -3.16042969 21.25984375 -3.14648438 20.4921875 C-3.11127204 18.66114584 -3.05746851 16.83047831 -3 15 C-4.65 15 -6.3 15 -8 15 C-7.1875 13.0625 -7.1875 13.0625 -6 11 C-5.01 10.67 -4.02 10.34 -3 10 C-3 9.01 -3 8.02 -3 7 C-4.32 7.33 -5.64 7.66 -7 8 C-5.51218185 4.21282653 -3.38011591 2.22592999 0 0 Z " fill="#133D71" transform="translate(262,263)"/>
<path d="M0 0 C2.375 1.5 2.375 1.5 4 3 C3.8125 4.875 3.8125 4.875 3 7 C0.75 8.4375 0.75 8.4375 -2 9 C-4.8125 7.625 -4.8125 7.625 -7 6 C-6.71758359 7.46015291 -6.42373386 8.91809793 -6.125 10.375 C-5.88136719 11.59316406 -5.88136719 11.59316406 -5.6328125 12.8359375 C-5.13341068 15.18673923 -5.13341068 15.18673923 -3 17 C0.58343976 17.16677282 0.58343976 17.16677282 4 17 C-2.20440882 23.37675351 -2.20440882 23.37675351 -5 25 C-7 25 -7 25 -9 24 C-13.10331721 19.54496989 -14.36350776 16.09631815 -14.28515625 9.99609375 C-13.71068987 5.97482906 -10.90389033 3.87376065 -8.125 1.1875 C-5.21430672 -0.43906389 -3.28631252 -0.41078906 0 0 Z " fill="#184174" transform="translate(351,273)"/>
<path d="M0 0 C0.66 0 1.32 0 2 0 C2 23.76 2 47.52 2 72 C0.35 72 -1.3 72 -3 72 C-3 73.65 -3 75.3 -3 77 C-3.33 77 -3.66 77 -4 77 C-4 71.06 -4 65.12 -4 59 C-6.31 59 -8.62 59 -11 59 C-11 57.02 -11 55.04 -11 53 C-8.69 53 -6.38 53 -4 53 C-4 49.04 -4 45.08 -4 41 C-3.67 41 -3.34 41 -3 41 C-2.67 43.97 -2.34 46.94 -2 50 C0.73678813 47.26321187 0.06904409 40.08565748 0.11352539 36.328125 C0.11336952 34.63540841 0.10786792 32.9426858 0.09765625 31.25 C0.0962413 30.35128174 0.09482635 29.45256348 0.09336853 28.52661133 C0.08781583 25.68437225 0.07527237 22.84221487 0.0625 20 C0.05747888 18.06119906 0.05291705 16.12239688 0.04882812 14.18359375 C0.03786194 9.45569817 0.02063044 4.72786289 0 0 Z " fill="#0B2E5A" transform="translate(180,155)"/>
<path d="M0 0 C4.59917914 0.42584992 8.96817908 1.12925532 13.4375 2.3125 C14.28183594 2.53550781 15.12617188 2.75851563 15.99609375 2.98828125 C18 4 18 4 18.78515625 6.10546875 C18.85605469 6.73066406 18.92695313 7.35585937 19 8 C19.721875 7.649375 20.44375 7.29875 21.1875 6.9375 C24.48542593 5.83819136 25.72411403 5.90803801 29 7 C31.40518272 8.24025079 33.68415344 9.59232856 36 11 C36 11.66 36 12.32 36 13 C35.29875 12.855625 34.5975 12.71125 33.875 12.5625 C30.92443859 11.98521625 27.96729849 11.48304859 25 11 C25.66 11.33 26.32 11.66 27 12 C27.12246094 12.62648437 27.24492187 13.25296875 27.37109375 13.8984375 C28.22485595 16.75138198 29.49470057 17.2210885 32.0625 18.625 C34.28515625 19.8515625 34.28515625 19.8515625 36 21 C36 21.66 36 22.32 36 23 C31.86727336 22.05631996 28.14916458 20.39183697 24.3125 18.625 C23.62349609 18.32078125 22.93449219 18.0165625 22.22460938 17.703125 C20.44334047 16.88342603 18.71630871 15.94821398 17 15 C16.67 14.01 16.34 13.02 16 12 C15.1028125 12.2784375 15.1028125 12.2784375 14.1875 12.5625 C12 13 12 13 9 12 C8.855625 10.865625 8.71125 9.73125 8.5625 8.5625 C8.38828522 5.19222799 8.38828522 5.19222799 7 4 C4.67182036 3.63239269 2.3381615 3.29758419 0 3 C0 2.01 0 1.02 0 0 Z " fill="#284971" transform="translate(201,177)"/>
<path d="M0 0 C1.96850586 1.18530273 1.96850586 1.18530273 4 3 C4.49829102 5.32836914 4.49829102 5.32836914 4.50390625 8.03515625 C4.52259766 9.00904297 4.54128906 9.98292969 4.56054688 10.98632812 C4.56119141 12.00146484 4.56183594 13.01660156 4.5625 14.0625 C4.57140749 16.07432081 4.59291486 18.08613769 4.62890625 20.09765625 C4.62963135 20.98976807 4.63035645 21.88187988 4.63110352 22.80102539 C4.75283936 23.52668701 4.8745752 24.25234863 5 25 C5.99 25.66 6.98 26.32 8 27 C5.69 28.98 3.38 30.96 1 33 C-0.984375 31.671875 -0.984375 31.671875 -3 29 C-3.51556954 25.40931746 -3.37526282 21.86816829 -3.25 18.25 C-3.23195313 17.26644531 -3.21390625 16.28289062 -3.1953125 15.26953125 C-3.14824126 12.84536217 -3.08250742 10.42317941 -3 8 C-4.32 8 -5.64 8 -7 8 C-5.50902342 4.2047869 -3.24299151 2.38957269 0 0 Z " fill="#123B70" transform="translate(123,265)"/>
<path d="M0 0 C0.33 0 0.66 0 1 0 C2.01125055 8.74326995 2.11957711 17.39323439 2.0625 26.1875 C2.05746963 27.53450352 2.05290947 28.88150889 2.04882812 30.22851562 C2.03715354 33.48572537 2.02077883 36.74283778 2 40 C2.66 40 3.32 40 4 40 C5.21693876 42.43387753 5.31959896 44.41838846 5.5625 47.125 C5.64628906 48.03507812 5.73007812 48.94515625 5.81640625 49.8828125 C5.87699219 50.58148438 5.93757813 51.28015625 6 52 C8.31 52.33 10.62 52.66 13 53 C13 54.98 13 56.96 13 59 C10.36 59 7.72 59 5 59 C5 63.95 5 68.9 5 74 C4.67 74 4.34 74 4 74 C4 70.04 4 66.08 4 62 C3.34 62 2.68 62 2 62 C1.67 65.96 1.34 69.92 1 74 C0.34 73.67 -0.32 73.34 -1 73 C-0.67 48.91 -0.34 24.82 0 0 Z " fill="#0B2F5C" transform="translate(319,155)"/>
<path d="M0 0 C0 0.99 0 1.98 0 3 C-1.32 3.33 -2.64 3.66 -4 4 C-4 4.66 -4 5.32 -4 6 C-2.02 6.33 -0.04 6.66 2 7 C2 7.99 2 8.98 2 10 C-9.20295203 12.4797048 -9.20295203 12.4797048 -14 12 C-14.66 11.34 -15.32 10.68 -16 10 C-16.33 11.98 -16.66 13.96 -17 16 C-17.66386719 16.10957031 -18.32773437 16.21914062 -19.01171875 16.33203125 C-23.9910101 17.22612298 -27.73684622 18.15789748 -32 21 C-32.99 21 -33.98 21 -35 21 C-34 18 -34 18 -30.91015625 16.17578125 C-29.6326637 15.54434632 -28.3498293 14.92363056 -27.0625 14.3125 C-26.41603516 13.99216797 -25.76957031 13.67183594 -25.10351562 13.34179688 C-20.29509262 11 -20.29509262 11 -18 11 C-18.350625 10.21625 -18.70125 9.4325 -19.0625 8.625 C-19.371875 7.75875 -19.68125 6.8925 -20 6 C-19 4 -19 4 -16.015625 2.9296875 C-14.77296875 2.58164063 -13.5303125 2.23359375 -12.25 1.875 C-11.01765625 1.52179688 -9.7853125 1.16859375 -8.515625 0.8046875 C-5.50163585 0.11481887 -3.065036 -0.17547916 0 0 Z " fill="#1C3C64" transform="translate(299,201)"/>
<path d="M0 0 C9.87975003 0.78410715 17.64445219 3.69287255 26.5 8 C27.21937744 8.34426025 27.93875488 8.68852051 28.67993164 9.04321289 C30.49462456 9.9504507 32.25298687 10.96843034 34 12 C34.495 13.485 34.495 13.485 35 15 C30.0276578 13.50829734 25.58154261 11.39542583 21 9 C20.67 9.99 20.34 10.98 20 12 C19.67 10.68 19.34 9.36 19 8 C17.02 8.33 15.04 8.66 13 9 C14.9254644 11.2236068 14.9254644 11.2236068 18 12 C18 12.99 18 13.98 18 15 C9.09 13.02 9.09 13.02 0 11 C-0.33 9.68 -0.66 8.36 -1 7 C-0.01 6.67 0.98 6.34 2 6 C2.33 5.01 2.66 4.02 3 3 C2.01 2.67 1.02 2.34 0 2 C0 1.34 0 0.68 0 0 Z " fill="#1E406A" transform="translate(202,161)"/>
<path d="M0 0 C1.98 0 3.96 0 6 0 C6 0.66 6 1.32 6 2 C5.01 2 4.02 2 3 2 C3 4.64 3 7.28 3 10 C4.32 10 5.64 10 7 10 C7.33 12.31 7.66 14.62 8 17 C8.12375 15.783125 8.2475 14.56625 8.375 13.3125 C8.78891306 9.93520941 9.54573451 7.10243305 11 4 C11.66 4 12.32 4 13 4 C13 3.01 13 2.02 13 1 C13.99 1 14.98 1 16 1 C16 3.64 16 6.28 16 9 C15.01 9 14.02 9 13 9 C13 13.29 13 17.58 13 22 C13.99 22 14.98 22 16 22 C16 24.64 16 27.28 16 30 C15.34 30 14.68 30 14 30 C14 28.35 14 26.7 14 25 C12.35 25 10.7 25 9 25 C8.67 24.34 8.34 23.68 8 23 C7.34 23.33 6.68 23.66 6 24 C6 23.01 6 22.02 6 21 C4.68 20.67 3.36 20.34 2 20 C2.33 17.36 2.66 14.72 3 12 C2.34 12 1.68 12 1 12 C-0.26237731 9.47524538 -0.09856404 7.68799534 -0.0625 4.875 C-0.05347656 3.96492187 -0.04445312 3.05484375 -0.03515625 2.1171875 C-0.02355469 1.41851562 -0.01195312 0.71984375 0 0 Z " fill="#D3F1F8" transform="translate(231,130)"/>
<path d="M0 0 C2.31 0 4.62 0 7 0 C7.33 4.29 7.66 8.58 8 13 C9.32 12.67 10.64 12.34 12 12 C12.33 12.33 12.66 12.66 13 13 C15.95911076 13.37650713 18.90745806 13.70736104 21.875 14 C23.51853861 14.16358705 25.16178575 14.33013617 26.8046875 14.5 C27.53671387 14.5721875 28.26874023 14.644375 29.02294922 14.71875 C31 15 31 15 34 16 C33.25 18.4375 33.25 18.4375 32 21 C29.15696208 22.06308219 26.79679042 22.04388741 23.8125 21.6953125 C23.03132813 21.60636719 22.25015625 21.51742187 21.4453125 21.42578125 C20.63835937 21.32652344 19.83140625 21.22726563 19 21.125 C18.19304687 21.03347656 17.38609375 20.94195312 16.5546875 20.84765625 C12.92253601 20.42210715 9.56338738 19.89084684 6 19 C6 13.06 6 7.12 6 1 C4.02 1 2.04 1 0 1 C0 0.67 0 0.34 0 0 Z " fill="#0C3462" transform="translate(169,214)"/>
<path d="M0 0 C0 0.99 0 1.98 0 3 C-1.98 3 -3.96 3 -6 3 C-6 3.66 -6 4.32 -6 5 C-4.68 5 -3.36 5 -2 5 C-2 5.66 -2 6.32 -2 7 C-1.34 7 -0.68 7 0 7 C0 8.32 0 9.64 0 11 C-5.94 12.32 -11.88 13.64 -18 15 C-18 13.35 -18 11.7 -18 10 C-17.01 9.34 -16.02 8.68 -15 8 C-15.99 7.67 -16.98 7.34 -18 7 C-18 6.01 -18 5.02 -18 4 C-16.1291122 3.32187886 -14.25305707 2.6580054 -12.375 2 C-11.33085937 1.62875 -10.28671875 1.2575 -9.2109375 0.875 C-5.98225494 -0.00483564 -3.32755706 -0.15988262 0 0 Z " fill="#173C65" transform="translate(299,169)"/>
<path d="M0 0 C0.33 0 0.66 0 1 0 C1.20410913 17.41731223 1.20410913 17.41731223 0 23 C-0.99 23.66 -1.98 24.32 -3 25 C-3.33 21.7 -3.66 18.4 -4 15 C-5.32 14.67 -6.64 14.34 -8 14 C-8 15.98 -8 17.96 -8 20 C-8.99 20 -9.98 20 -11 20 C-11 19.01 -11 18.02 -11 17 C-12.65 17 -14.3 17 -16 17 C-16 15.68 -16 14.36 -16 13 C-14.68 13 -13.36 13 -12 13 C-12 11.35 -12 9.7 -12 8 C-9.69 8 -7.38 8 -5 8 C-5 6.02 -5 4.04 -5 2 C-4.34 2 -3.68 2 -3 2 C-2.34 4.31 -1.68 6.62 -1 9 C-0.67 6.03 -0.34 3.06 0 0 Z " fill="#294B73" transform="translate(180,181)"/>
<path d="M0 0 C2.97 0.33 5.94 0.66 9 1 C9 1.66 9 2.32 9 3 C7.68 3.33 6.36 3.66 5 4 C5.33 4.66 5.66 5.32 6 6 C5.01 6 4.02 6 3 6 C3.33 8.31 3.66 10.62 4 13 C2.59308393 13.72750788 1.17393978 14.43140353 -0.25 15.125 C-1.03890625 15.51945313 -1.8278125 15.91390625 -2.640625 16.3203125 C-5 17 -5 17 -7.296875 16.1171875 C-8.13992188 15.56417969 -8.13992188 15.56417969 -9 15 C-8.67 14.34 -8.34 13.68 -8 13 C-8.66 12.34 -9.32 11.68 -10 11 C-9.67 10.01 -9.34 9.02 -9 8 C-8.01 8 -7.02 8 -6 8 C-6 6.68 -6 5.36 -6 4 C-6.66 3.67 -7.32 3.34 -8 3 C-6.68 2.67 -5.36 2.34 -4 2 C-3.67 2.66 -3.34 3.32 -3 4 C-2.34 3.67 -1.68 3.34 -1 3 C-0.67 2.01 -0.34 1.02 0 0 Z " fill="#0E3360" transform="translate(277,199)"/>
<path d="M0 0 C0.33 0 0.66 0 1 0 C1 24.42 1 48.84 1 74 C-25 76 -25 76 -28 74 C-20.34011744 69.80530241 -13.53672302 69.86329091 -5 70 C-5 70.33 -5 70.66 -5 71 C-7.475 71.495 -7.475 71.495 -10 72 C-6.7 72.33 -3.4 72.66 0 73 C0 48.91 0 24.82 0 0 Z " fill="#B3C2D1" transform="translate(318,154)"/>
<path d="M0 0 C6.68993219 0.53951066 12.63460728 1.88706171 19 4 C19 4.66 19 5.32 19 6 C19.66 6.33 20.32 6.66 21 7 C18 9 18 9 14 9 C14 9.99 14 10.98 14 12 C12.0412957 11.85923685 10.08303907 11.7122324 8.125 11.5625 C7.03445312 11.48128906 5.94390625 11.40007812 4.8203125 11.31640625 C2 11 2 11 0 10 C0 9.01 0 8.02 0 7 C0.99 6.34 1.98 5.68 3 5 C3.33 4.67 3.66 4.34 4 4 C2.68 3.67 1.36 3.34 0 3 C0 2.01 0 1.02 0 0 Z " fill="#27466E" transform="translate(201,201)"/>
<path d="M0 0 C2.97 0 5.94 0 9 0 C9 3.63 9 7.26 9 11 C10.65 11.33 12.3 11.66 14 12 C13.67 12.99 13.34 13.98 13 15 C6.07 14.505 6.07 14.505 -1 14 C-1.125 4.5 -1.125 4.5 0 0 Z " fill="#C7D0DD" transform="translate(149,334)"/>
<path d="M0 0 C1.49297212 2.98594424 1.11755228 5.70853624 1 9 C0.67 9.66 0.34 10.32 0 11 C0.66 11.33 1.32 11.66 2 12 C-4.33150039 16.01806756 -4.33150039 16.01806756 -7.3125 15.9375 C-9 15 -9 15 -11 12 C-11.5625 9.1875 -11.5625 9.1875 -11 6 C-7.68240139 1.99161373 -5.2863514 0 0 0 Z " fill="#1B4376" transform="translate(243,282)"/>
<path d="M0 0 C2.8125 2.25 2.8125 2.25 5 5 C5 9 5 9 3.35546875 10.73828125 C2.64003906 11.25777344 1.92460937 11.77726562 1.1875 12.3125 C0.12595703 13.11107422 0.12595703 13.11107422 -0.95703125 13.92578125 C-1.63121094 14.28027344 -2.30539062 14.63476562 -3 15 C-6 14 -6 14 -6.94921875 12.15234375 C-7.19285156 11.42144531 -7.43648438 10.69054687 -7.6875 9.9375 C-8.06455078 8.83728516 -8.06455078 8.83728516 -8.44921875 7.71484375 C-8.63097656 7.14894531 -8.81273437 6.58304687 -9 6 C-10.98 6.99 -10.98 6.99 -13 8 C-5.78913738 -0.96485623 -5.78913738 -0.96485623 0 0 Z " fill="#194275" transform="translate(330,273)"/>
<path d="M0 0 C-0.99 0.33 -1.98 0.66 -3 1 C-2.34 1.66 -1.68 2.32 -1 3 C-5.63272103 4.78181578 -10.27361148 6.42001739 -15 7.9375 C-19.95252367 9.56117548 -24.3813082 11.60512277 -29 14 C-29.66 14 -30.32 14 -31 14 C-31 13.34 -31 12.68 -31 12 C-31.99 11.67 -32.98 11.34 -34 11 C-7.97742768 -2.92376597 -7.97742768 -2.92376597 0 0 Z " fill="#DFE7EE" transform="translate(294,227)"/>
<path d="M0 0 C0.268125 1.2375 0.53625 2.475 0.8125 3.75 C1.65315218 7.09484845 2.50711758 9.50711758 5 12 C5.99 12.33 6.98 12.66 8 13 C6.63016497 16.16115776 6.0109362 16.9927092 3 19 C0.34946143 18.82899751 -0.99478476 18.00357616 -3.1875 16.5 C-5.8001877 12.89629283 -6.49627728 9.42710846 -6 5 C-2.12244898 0 -2.12244898 0 0 0 Z " fill="#113B70" transform="translate(190,279)"/>
<path d="M0 0 C6.48472993 0.73690113 12.69239743 2.35318751 19 4 C19.66 6.31 20.32 8.62 21 11 C20.4740625 10.8453125 19.948125 10.690625 19.40625 10.53125 C16.43465289 9.87518311 13.53633959 9.69499429 10.5 9.5 C6.87910068 9.26746518 3.48824225 9.0259536 0 8 C1.875 3.25 1.875 3.25 3 1 C2.01 0.67 1.02 0.34 0 0 Z " fill="#143965" transform="translate(200,229)"/>
<path d="M0 0 C0.99 0 1.98 0 3 0 C3 0.99 3 1.98 3 3 C4.32 3 5.64 3 7 3 C7 9.6 7 16.2 7 23 C5.35 23.33 3.7 23.66 2 24 C2 25.32 2 26.64 2 28 C1.34 28 0.68 28 0 28 C0 25.69 0 23.38 0 21 C0.99 21 1.98 21 3 21 C3 17.04 3 13.08 3 9 C2.01 9 1.02 9 0 9 C0 6.03 0 3.06 0 0 Z " fill="#D3F0F8" transform="translate(254,131)"/>
<path d="M0 0 C2.64 0 5.28 0 8 0 C8.33 4.62 8.66 9.24 9 14 C5.7 14 2.4 14 -1 14 C-2.33928571 3.82142857 -2.33928571 3.82142857 0 0 Z " fill="#CDD8E1" transform="translate(350,334)"/>
<path d="M0 0 C2.97 0 5.94 0 9 0 C9 4.62 9 9.24 9 14 C5.7 14 2.4 14 -1 14 C-1.125 4.5 -1.125 4.5 0 0 Z " fill="#C6CFDC" transform="translate(221,334)"/>
<path d="M0 0 C0 2 0 2 -1.4375 3.5 C-1.953125 3.995 -2.46875 4.49 -3 5 C-3.33 5.66 -3.66 6.32 -4 7 C-4.66 7 -5.32 7 -6 7 C-6 7.66 -6 8.32 -6 9 C-4.783125 8.67 -3.56625 8.34 -2.3125 8 C0.87210604 7.19677787 3.6972843 6.79358027 7 7 C6.67 7.99 6.34 8.98 6 10 C3.63671875 11.0625 3.63671875 11.0625 0.6875 12 C-3.1585842 13.23239013 -5.79172937 14.59208686 -9 17 C-9.99 17 -10.98 17 -12 17 C-11.34 15.68 -10.68 14.36 -10 13 C-9.34 13 -8.68 13 -8 13 C-8.33 11.02 -8.66 9.04 -9 7 C-9.99 7.33 -10.98 7.66 -12 8 C-12.33 7.01 -12.66 6.02 -13 5 C-11.58957044 4.15615325 -10.17135868 3.32530504 -8.75 2.5 C-7.56664062 1.80390625 -7.56664062 1.80390625 -6.359375 1.09375 C-4 0 -4 0 0 0 Z " fill="#234166" transform="translate(276,183)"/>
<path d="M0 0 C2.31 0 4.62 0 7 0 C7 1.65 7 3.3 7 5 C8.32 5 9.64 5 11 5 C11 6.65 11 8.3 11 10 C9.68 10 8.36 10 7 10 C7 10.66 7 11.32 7 12 C5.68 12 4.36 12 3 12 C3 10.02 3 8.04 3 6 C2.01 6 1.02 6 0 6 C0 9.96 0 13.92 0 18 C-0.33 18 -0.66 18 -1 18 C-1.33 14.04 -1.66 10.08 -2 6 C-2.66 6 -3.32 6 -4 6 C-4.33 6.66 -4.66 7.32 -5 8 C-5 7.01 -5 6.02 -5 5 C-4.34 5 -3.68 5 -3 5 C-2.67 4.01 -2.34 3.02 -2 2 C-1.34 2 -0.68 2 0 2 C0 1.34 0 0.68 0 0 Z " fill="#345277" transform="translate(325,189)"/>
<path d="M0 0 C0.33 0.66 0.66 1.32 1 2 C3.31 2 5.62 2 8 2 C9.1577506 5.47325181 9.06866652 8.36067448 9 12 C7.35425434 12.02688151 5.70838587 12.04634123 4.0625 12.0625 C3.14597656 12.07410156 2.22945313 12.08570313 1.28515625 12.09765625 C-1 12 -1 12 -2 11 C-3.01655307 5.74780915 -3.01655307 5.74780915 -3 3 C-1.5625 1 -1.5625 1 0 0 Z " fill="#D4DBE5" transform="translate(390,336)"/>
<path d="M0 0 C2.23558594 0.29807813 3.74038037 0.82447104 5.61152649 2.08955383 C7.70744666 4.97339903 7.39341639 7.88844493 7.34057617 11.31713867 C7.34101425 12.05884811 7.34145233 12.80055756 7.34190369 13.56474304 C7.33981383 16.01608616 7.31647419 18.46674513 7.29296875 20.91796875 C7.28737348 22.61761603 7.28310306 24.31726815 7.28010559 26.016922 C7.26865134 30.49031941 7.23917927 34.96342459 7.20599365 39.43670654 C7.17530521 44.00138394 7.16160288 48.56610855 7.14648438 53.13085938 C7.11431005 62.08736797 7.06310675 71.04365969 7 80 C5.35 79.01 3.7 78.02 2 77 C3.98 76.505 3.98 76.505 6 76 C5.67 52.57 5.34 29.14 5 5 C3.68 4.67 2.36 4.34 1 4 C1 3.34 1 2.68 1 2 C0.34 1.67 -0.32 1.34 -1 1 C-0.67 0.67 -0.34 0.34 0 0 Z " fill="#1F3E62" transform="translate(241,163)"/>
<path d="M0 0 C0.33 0 0.66 0 1 0 C1 6.27 1 12.54 1 19 C-2.8726592 19.9681648 -6.03611362 20.07622858 -10 20 C-9.67 19.01 -9.34 18.02 -9 17 C-10.66342837 15.33657163 -12.7825709 15.63951903 -15.0625 15.4375 C-15.98160156 15.35371094 -16.90070313 15.26992187 -17.84765625 15.18359375 C-18.55792969 15.12300781 -19.26820313 15.06242188 -20 15 C-20 14.67 -20 14.34 -20 14 C-17.70839681 13.97307516 -15.41670454 13.95363876 -13.125 13.9375 C-11.84882813 13.92589844 -10.57265625 13.91429687 -9.2578125 13.90234375 C-6 14 -6 14 -4 15 C-3.67 11.04 -3.34 7.08 -3 3 C-2.34 3 -1.68 3 -1 3 C-0.67 2.01 -0.34 1.02 0 0 Z " fill="#0B3366" transform="translate(324,214)"/>
<path d="M0 0 C5.66104589 0.49658297 9.87674471 1.54510684 15 4 C14.67 5.65 14.34 7.3 14 9 C14.66 9 15.32 9 16 9 C16 9.99 16 10.98 16 12 C14.68 12 13.36 12 12 12 C11.67 11.01 11.34 10.02 11 9 C8.61933199 8.12012394 6.38518099 7.42741106 3.9375 6.8125 C2.94266602 6.54663086 2.94266602 6.54663086 1.92773438 6.27539062 C0.28812574 5.83894804 -1.35559238 5.41799781 -3 5 C-2.67 4.01 -2.34 3.02 -2 2 C-1.34 2 -0.68 2 0 2 C0 1.34 0 0.68 0 0 Z " fill="#173C69" transform="translate(208,173)"/>
<path d="M0 0 C0.33 0.99 0.66 1.98 1 3 C4.3 3 7.6 3 11 3 C11.33 3.99 11.66 4.98 12 6 C10.68 6 9.36 6 8 6 C8 8.31 8 10.62 8 13 C6.68 13 5.36 13 4 13 C3.67 10.36 3.34 7.72 3 5 C2.34 5 1.68 5 1 5 C1 6.98 1 8.96 1 11 C1.66 11.33 2.32 11.66 3 12 C1.35 12.33 -0.3 12.66 -2 13 C-2.2493357 11.39884424 -2.47378648 9.79379841 -2.6875 8.1875 C-2.81511719 7.29417969 -2.94273438 6.40085937 -3.07421875 5.48046875 C-3 3 -3 3 -1.51953125 1.17578125 C-1.01808594 0.78777344 -0.51664062 0.39976562 0 0 Z " fill="#90A3BC" transform="translate(101,335)"/>
<path d="M0 0 C0 0.66 0 1.32 0 2 C-1.13695312 2.27972656 -2.27390625 2.55945313 -3.4453125 2.84765625 C-12.6341892 5.20131938 -20.83856934 8.01151524 -29.1796875 12.546875 C-31.52674282 13.75616112 -33.42555348 14.52739629 -36 15 C-36 14.34 -36 13.68 -36 13 C-21.33326211 4.21664772 -21.33326211 4.21664772 -13 2 C-11.783125 1.608125 -10.56625 1.21625 -9.3125 0.8125 C-6.06648784 0.01630834 -3.32611863 -0.16224969 0 0 Z " fill="#CADBE5" transform="translate(299,161)"/>
<path d="M0 0 C3.50411265 0.3185557 5.5840105 0.69067447 8.4375 2.8125 C10 5 10 5 10.125 6.9375 C8.39192309 10.11480766 5.86333635 11.8068062 3 14 C2.34 13.34 1.68 12.68 1 12 C1.20625 11.401875 1.4125 10.80375 1.625 10.1875 C2.30777819 7.74978478 2.30777819 7.74978478 0.0625 5.25 C-0.618125 4.5075 -1.29875 3.765 -2 3 C-1.34 2.01 -0.68 1.02 0 0 Z " fill="#163F73" transform="translate(282,273)"/>
<path d="M0 0 C0.66 0 1.32 0 2 0 C2 1.32 2 2.64 2 4 C3.65 3.67 5.3 3.34 7 3 C9 6 9 6 8.6875 9.125 C8 12 8 12 7 13 C4.66702567 13.04092937 2.33294775 13.04241723 0 13 C0 8.71 0 4.42 0 0 Z " fill="#41628C" transform="translate(243,335)"/>
<path d="M0 0 C2.64 0 5.28 0 8 0 C7.67 0.99 7.34 1.98 7 3 C7 2.34 7 1.68 7 1 C5.02 1 3.04 1 1 1 C1.11859375 1.79664063 1.2371875 2.59328125 1.359375 3.4140625 C2.54333986 13.14625367 2.54333986 13.14625367 0.0625 16.75 C-0.618125 17.4925 -1.29875 18.235 -2 19 C-4.9375 18.25 -4.9375 18.25 -8 17 C-8.875 14.875 -8.875 14.875 -9 13 C-8.01 13 -7.02 13 -6 13 C-6 12.01 -6 11.02 -6 10 C-4.35 9.34 -2.7 8.68 -1 8 C-0.67 5.36 -0.34 2.72 0 0 Z " fill="#E5F6FA" transform="translate(230,129)"/>
<path d="M0 0 C9.87975003 0.78410715 17.64445219 3.69287255 26.5 8 C27.21937744 8.34426025 27.93875488 8.68852051 28.67993164 9.04321289 C30.49462456 9.9504507 32.25298687 10.96843034 34 12 C34.495 13.485 34.495 13.485 35 15 C31.3556592 13.972109 28.28461122 12.62808971 25.0625 10.6875 C17.5011342 6.34647738 8.5705057 3.50474527 0 2 C0 1.34 0 0.68 0 0 Z " fill="#D3E2EC" transform="translate(202,161)"/>
<path d="M0 0 C4.29 0 8.58 0 13 0 C15 4 15 4 16 7 C15.0625 9.6875 15.0625 9.6875 14 12 C11.82145293 8.7321794 10.50239966 5.61941735 9 2 C7.35 2.33 5.7 2.66 4 3 C4 5.31 4 7.62 4 10 C2.68 9.67 1.36 9.34 0 9 C0 6.03 0 3.06 0 0 Z " fill="#305582" transform="translate(177,338)"/>
<path d="M0 0 C2.31 0 4.62 0 7 0 C7.33 4.29 7.66 8.58 8 13 C9.32 12.67 10.64 12.34 12 12 C12.33 12.33 12.66 12.66 13 13 C15.18292774 13.23481693 17.37203174 13.41363323 19.5625 13.5625 C20.76003906 13.64628906 21.95757812 13.73007813 23.19140625 13.81640625 C24.11824219 13.87699219 25.04507813 13.93757812 26 14 C26 14.33 26 14.66 26 15 C22.37 15 18.74 15 15 15 C15 15.66 15 16.32 15 17 C14.01 17.33 13.02 17.66 12 18 C13.98 18.33 15.96 18.66 18 19 C18 19.33 18 19.66 18 20 C16.7625 20.020625 15.525 20.04125 14.25 20.0625 C13.55390625 20.07410156 12.8578125 20.08570313 12.140625 20.09765625 C10 20 10 20 6 19 C6 13.06 6 7.12 6 1 C4.02 1 2.04 1 0 1 C0 0.67 0 0.34 0 0 Z " fill="#4B6788" transform="translate(169,214)"/>
<path d="M0 0 C2.31 0 4.62 0 7 0 C7.05391993 1.79133978 7.09275571 3.58313899 7.125 5.375 C7.14820313 6.37273437 7.17140625 7.37046875 7.1953125 8.3984375 C7 11 7 11 5 13 C4.83322718 16.58343976 4.83322718 16.58343976 5 20 C3.35 20.33 1.7 20.66 0 21 C0 20.34 0 19.68 0 19 C0.66 19 1.32 19 2 19 C2 16.36 2 13.72 2 11 C2.66 11 3.32 11 4 11 C4 8.36 4 5.72 4 3 C2.68 3 1.36 3 0 3 C0 2.01 0 1.02 0 0 Z " fill="#88C5E2" transform="translate(263,129)"/>
<path d="M0 0 C3 0 3 0 4.6875 1.5 C5.120625 1.995 5.55375 2.49 6 3 C6.33 2.01 6.66 1.02 7 0 C7.99 0 8.98 0 10 0 C10 2.64 10 5.28 10 8 C9.01 8 8.02 8 7 8 C6.34 8.165 5.68 8.33 5 8.5 C3 9 3 9 0 9 C0 6.03 0 3.06 0 0 Z " fill="#2F5482" transform="translate(307,309)"/>
<path d="M0 0 C0 2.64 0 5.28 0 8 C2.31 8 4.62 8 7 8 C7 11.3 7 14.6 7 18 C5.68 17.67 4.36 17.34 3 17 C3.99 17 4.98 17 6 17 C6 14.36 6 11.72 6 9 C2.7 9.33 -0.6 9.66 -4 10 C-4.33 10.99 -4.66 11.98 -5 13 C-5.33 9.04 -5.66 5.08 -6 1 C-3 0 -3 0 0 0 Z " fill="#2F4F73" transform="translate(325,152)"/>
<path d="M0 0 C1.32 0 2.64 0 4 0 C4 3.63 4 7.26 4 11 C5.65 11.33 7.3 11.66 9 12 C8.67 12.99 8.34 13.98 8 15 C5.36 14.67 2.72 14.34 0 14 C0 9.38 0 4.76 0 0 Z " fill="#547198" transform="translate(154,334)"/>
<path d="M0 0 C5.42662124 0.56527305 10.69229868 1.7603328 16 3 C15.01 3.66 14.02 4.32 13 5 C13.99 6.485 13.99 6.485 15 8 C14.16597656 7.79503906 13.33195312 7.59007812 12.47265625 7.37890625 C5.96966128 5.82206095 -0.33643284 4.56470908 -7 4 C-7 3.67 -7 3.34 -7 3 C-5.5459375 2.5359375 -5.5459375 2.5359375 -4.0625 2.0625 C-1.15934208 1.30476658 -1.15934208 1.30476658 0 0 Z " fill="#DEE7ED" transform="translate(202,225)"/>
<path d="M0 0 C0.33 2.97 0.66 5.94 1 9 C-1.64 9 -4.28 9 -7 9 C-7 6 -7 3 -7 0 C-4.3333581 -1.33332095 -2.83319697 -0.67102033 0 0 Z " fill="#8298B4" transform="translate(346,339)"/>
<path d="M0 0 C1.98 0 3.96 0 6 0 C6 0.66 6 1.32 6 2 C5.01 2 4.02 2 3 2 C3 4.64 3 7.28 3 10 C3.66 10 4.32 10 5 10 C5 12.64 5 15.28 5 18 C5.66 18 6.32 18 7 18 C7 18.66 7 19.32 7 20 C5.35 19.67 3.7 19.34 2 19 C2.33 16.69 2.66 14.38 3 12 C2.34 12 1.68 12 1 12 C-0.26237731 9.47524538 -0.09856404 7.68799534 -0.0625 4.875 C-0.05347656 3.96492187 -0.04445312 3.05484375 -0.03515625 2.1171875 C-0.02355469 1.41851562 -0.01195312 0.71984375 0 0 Z " fill="#97CEE6" transform="translate(231,130)"/>
<path d="M0 0 C1.8125 0.1875 1.8125 0.1875 4 1 C6.92900057 4.66125071 7.32215416 7.3824571 7 12 C3 12 3 12 1.25 10.5 C-0.56114514 6.87770971 -0.20127966 4.02559319 0 0 Z " fill="#E9ECF1" transform="translate(191,279)"/>
<path d="M0 0 C4.29 0 8.58 0 13 0 C11.35 4.29 9.7 8.58 8 13 C7.67 13 7.34 13 7 13 C6.51171875 10.98177083 6.0234375 8.96354167 5.53515625 6.9453125 C5.05153008 4.9414343 5.05153008 4.9414343 4 3 C1.47266765 2.34444881 1.47266765 2.34444881 -1 2 C-0.67 1.34 -0.34 0.68 0 0 Z " fill="#96A8C0" transform="translate(400,338)"/>
<path d="M0 0 C0.99 0 1.98 0 3 0 C3.33 0.66 3.66 1.32 4 2 C4.99 1.34 5.98 0.68 7 0 C8 1 8 1 8.09765625 2.84765625 C8.04882812 5.92382812 8.04882812 5.92382812 8 9 C7.4225 8.79375 6.845 8.5875 6.25 8.375 C3.60482214 7.70744585 3.60482214 7.70744585 0 10 C0 6.7 0 3.4 0 0 Z " fill="#345785" transform="translate(229,308)"/>
<path d="M0 0 C4.875 0.875 4.875 0.875 6 2 C6.14115161 4.67058851 6.04247107 7.32432238 6 10 C3.36 10 0.72 10 -2 10 C-1.6875 8.125 -1.6875 8.125 -1 6 C-0.01 5.34 0.98 4.68 2 4 C2 3.34 2 2.68 2 2 C1.67 2.66 1.34 3.32 1 4 C0.01 4 -0.98 4 -2 4 C-1.34 2.68 -0.68 1.36 0 0 Z " fill="#41638D" transform="translate(140,338)"/>
<path d="M0 0 C0.33 2.97 0.66 5.94 1 9 C-0.32 9 -1.64 9 -3 9 C-3 6.36 -3 3.72 -3 1 C-3.66 1 -4.32 1 -5 1 C-5 3.64 -5 6.28 -5 9 C-6.32 8.67 -7.64 8.34 -9 8 C-8.67 5.36 -8.34 2.72 -8 0 C-4.63458162 -1.08174162 -3.70152678 -0.92538169 0 0 Z " fill="#244B7B" transform="translate(286,339)"/>
<path d="M0 0 C1 4 1 4 2 8 C1.01 8.33 0.02 8.66 -1 9 C-1 8.01 -1 7.02 -1 6 C-1.66 6.66 -2.32 7.32 -3 8 C-3 9.32 -3 10.64 -3 12 C-5.31 12.33 -7.62 12.66 -10 13 C-10 12.34 -10 11.68 -10 11 C-9.01 10.34 -8.02 9.68 -7 9 C-6.27617533 6.94074861 -6.27617533 6.94074861 -6 5 C-5.34 5 -4.68 5 -4 5 C-3.8453125 4.0409375 -3.8453125 4.0409375 -3.6875 3.0625 C-3.460625 2.381875 -3.23375 1.70125 -3 1 C-2.01 0.67 -1.02 0.34 0 0 Z " fill="#516F8F" transform="translate(274,195)"/>
<path d="M0 0 C4.875 0.875 4.875 0.875 6 2 C6.14115161 4.67058851 6.04247107 7.32432238 6 10 C3.69 10 1.38 10 -1 10 C-1 8.68 -1 7.36 -1 6 C-0.01 5.34 0.98 4.68 2 4 C2.33 3.01 2.66 2.02 3 1 C2.34 1 1.68 1 1 1 C1 1.99 1 2.98 1 4 C0.34 4 -0.32 4 -1 4 C-0.67 2.68 -0.34 1.36 0 0 Z " fill="#3A5C88" transform="translate(212,338)"/>
<path d="M0 0 C1.67542976 0.28604898 3.34385343 0.61781233 5 1 C5.75 3.25 5.75 3.25 6 6 C4.25 8.3125 4.25 8.3125 2 10 C1.01 10 0.02 10 -1 10 C-1.02689216 8.52093108 -1.04634621 7.04172517 -1.0625 5.5625 C-1.07410156 4.73878906 -1.08570313 3.91507812 -1.09765625 3.06640625 C-1 1 -1 1 0 0 Z " fill="#1F4778" transform="translate(289,308)"/>
<path d="M0 0 C-0.33 0.99 -0.66 1.98 -1 3 C-3.36328125 4.0625 -3.36328125 4.0625 -6.3125 5 C-10.1585842 6.23239013 -12.79172937 7.59208686 -16 10 C-16.99 10 -17.98 10 -19 10 C-17.50913577 5.79265309 -15.09831143 4.65959473 -11.1875 2.75 C-9.63095703 1.96882812 -9.63095703 1.96882812 -8.04296875 1.171875 C-5.07741505 0.02981324 -3.13490439 -0.2549645 0 0 Z " fill="#CFDFE9" transform="translate(283,190)"/>
<path d="M0 0 C1.65 0 3.3 0 5 0 C5 1.65 5 3.3 5 5 C6.32 5 7.64 5 9 5 C9 5.99 9 6.98 9 8 C8.01 8 7.02 8 6 8 C6 8.99 6 9.98 6 11 C4.68 11 3.36 11 2 11 C2 8.69 2 6.38 2 4 C1.34 4 0.68 4 0 4 C0 2.68 0 1.36 0 0 Z " fill="#16365F" transform="translate(326,190)"/>
<path d="M0 0 C6.68993219 0.53951066 12.63460728 1.88706171 19 4 C18.67 4.99 18.34 5.98 18 7 C9.09 5.02 9.09 5.02 0 3 C0 2.01 0 1.02 0 0 Z " fill="#D2E2EB" transform="translate(201,201)"/>
<path d="M0 0 C0 0.99 0 1.98 0 3 C-5.94 4.32 -11.88 5.64 -18 7 C-18 6.01 -18 5.02 -18 4 C-16.1291122 3.32187886 -14.25305707 2.6580054 -12.375 2 C-11.33085937 1.62875 -10.28671875 1.2575 -9.2109375 0.875 C-5.98225494 -0.00483564 -3.32755706 -0.15988262 0 0 Z " fill="#C1D2DE" transform="translate(299,169)"/>
<path d="M0 0 C6.88831341 -0.62621031 12.58902255 1.64193933 19 4 C19 4.99 19 5.98 19 7 C16.01686056 6.41173326 13.03951463 5.80537096 10.0625 5.1875 C9.21236328 5.02185547 8.36222656 4.85621094 7.48632812 4.68554688 C6.67744141 4.51474609 5.86855469 4.34394531 5.03515625 4.16796875 C4.2862915 4.01610107 3.53742676 3.8642334 2.76586914 3.70776367 C2.18313232 3.47420166 1.60039551 3.24063965 1 3 C0.67 2.01 0.34 1.02 0 0 Z " fill="#C3D3E0" transform="translate(201,169)"/>
<path d="M0 0 C2.625 0.375 2.625 0.375 5 1 C5.33 2.32 5.66 3.64 6 5 C4.35 5 2.7 5 1 5 C1 5.99 1 6.98 1 8 C2.32 8.33 3.64 8.66 5 9 C4 10 4 10 1.4375 10.0625 C0.633125 10.041875 -0.17125 10.02125 -1 10 C-2.38125018 7.23749964 -2.19079306 5.05268901 -2 2 C-1.34 1.34 -0.68 0.68 0 0 Z " fill="#748CAB" transform="translate(310,338)"/>
<path d="M0 0 C2.625 0.375 2.625 0.375 5 1 C5 1.99 5 2.98 5 4 C3.35 4.33 1.7 4.66 0 5 C0.33 5.66 0.66 6.32 1 7 C1 6.34 1 5.68 1 5 C2.32 5 3.64 5 5 5 C4.67 6.32 4.34 7.64 4 9 C1.625 9.625 1.625 9.625 -1 10 C-1.66 9.34 -2.32 8.68 -3 8 C-2.54545455 2.54545455 -2.54545455 2.54545455 0 0 Z " fill="#2E5381" transform="translate(243,308)"/>
<path d="M0 0 C3 1 3 1 4 3 C4.33 2.01 4.66 1.02 5 0 C5.66 0 6.32 0 7 0 C7 2.97 7 5.94 7 9 C5.68 8.67 4.36 8.34 3 8 C2.67 8.66 2.34 9.32 2 10 C1.34 10 0.68 10 0 10 C0 6.7 0 3.4 0 0 Z " fill="#1C4476" transform="translate(213,308)"/>
<path d="M0 0 C6.51819877 1.89536276 12.17814801 4.5178994 18 8 C18 8.66 18 9.32 18 10 C13.66695924 9.35534798 10.13327935 7.81074878 6.1875 5.9375 C5.02605469 5.38964844 3.86460937 4.84179688 2.66796875 4.27734375 C1.78753906 3.85582031 0.90710938 3.43429688 0 3 C0 2.01 0 1.02 0 0 Z " fill="#D0E1EA" transform="translate(219,212)"/>
<path d="M0 0 C0 0.99 0 1.98 0 3 C-2.06228466 3.48009262 -4.12483701 3.95903544 -6.1875 4.4375 C-7.33605469 4.70433594 -8.48460937 4.97117188 -9.66796875 5.24609375 C-12.43923875 5.87312201 -15.21091874 6.45899177 -18 7 C-18 6.01 -18 5.02 -18 4 C-15.94037148 3.32451422 -13.87715678 2.65995688 -11.8125 2 C-10.66394531 1.62875 -9.51539063 1.2575 -8.33203125 0.875 C-5.35679188 0.09369447 -3.04716104 -0.18363306 0 0 Z " fill="#CFDCE5" transform="translate(299,201)"/>
<path d="M0 0 C0.99 0 1.98 0 3 0 C3 1.98 3 3.96 3 6 C4.32 6.33 5.64 6.66 7 7 C6.67 7.66 6.34 8.32 6 9 C5.01 9 4.02 9 3 9 C3 9.66 3 10.32 3 11 C4.32 11.66 5.64 12.32 7 13 C4.69 13 2.38 13 0 13 C0 8.71 0 4.42 0 0 Z " fill="#D0DCE6" transform="translate(325,195)"/>
<path d="M0 0 C7.05691792 0.5571251 13.20466989 4.13644659 19 8 C19 8.66 19 9.32 19 10 C16.266235 9.38516675 13.85825882 8.57072617 11.328125 7.37109375 C10.66425781 7.05849609 10.00039062 6.74589844 9.31640625 6.42382812 C8.63449219 6.09833984 7.95257813 5.77285156 7.25 5.4375 C6.55261719 5.10814453 5.85523438 4.77878906 5.13671875 4.43945312 C3.4229533 3.62952288 1.71126806 2.81519362 0 2 C0 1.34 0 0.68 0 0 Z " fill="#C9DAE5" transform="translate(218,190)"/>
<path d="M0 0 C2 0.6875 2 0.6875 4 2.6875 C4.125 5.3125 4.125 5.3125 4 7.6875 C2.02 8.6775 2.02 8.6775 0 9.6875 C0 7.0475 0 4.4075 0 1.6875 C-0.33 1.6875 -0.66 1.6875 -1 1.6875 C-1 4.3275 -1 6.9675 -1 9.6875 C-2.32 9.0275 -3.64 8.3675 -5 7.6875 C-4.74438677 5.3443787 -4.40729228 3.00906597 -4 0.6875 C-2 -0.3125 -2 -0.3125 0 0 Z " fill="#2D5280" transform="translate(377,338.3125)"/>
<path d="M0 0 C1.65 0.33 3.3 0.66 5 1 C4.67 1.66 4.34 2.32 4 3 C3.34 3 2.68 3 2 3 C2 6.63 2 10.26 2 14 C0.68 14 -0.64 14 -2 14 C-2.25028811 12.41986783 -2.47440946 10.83557694 -2.6875 9.25 C-2.81511719 8.36828125 -2.94273437 7.4865625 -3.07421875 6.578125 C-2.98397191 3.44323483 -2.07384637 2.28176413 0 0 Z " fill="#2E5381" transform="translate(206,334)"/>
<path d="M0 0 C1.65 0.33 3.3 0.66 5 1 C4.67 1.66 4.34 2.32 4 3 C3.34 3 2.68 3 2 3 C2 6.63 2 10.26 2 14 C0.68 14 -0.64 14 -2 14 C-2.25028811 12.41986783 -2.47440946 10.83557694 -2.6875 9.25 C-2.81511719 8.36828125 -2.94273437 7.4865625 -3.07421875 6.578125 C-2.98397191 3.44323483 -2.07384637 2.28176413 0 0 Z " fill="#2E5381" transform="translate(134,334)"/>
<path d="M0 0 C2.97 0.495 2.97 0.495 6 1 C6 3.97 6 6.94 6 10 C5.34 10 4.68 10 4 10 C3.67 9.34 3.34 8.68 3 8 C2.01 8.66 1.02 9.32 0 10 C0 6.7 0 3.4 0 0 Z " fill="#294E7E" transform="translate(203,308)"/>
<path d="M0 0 C6.11185874 0.56591285 12.36979654 1.43183702 18 4 C18.33 4.99 18.66 5.98 19 7 C15.89162665 6.55594666 13.04007811 6.01364361 10.0625 5 C6.71542381 3.90707716 3.48981374 3.41877765 0 3 C0 2.01 0 1.02 0 0 Z " fill="#C9DBE6" transform="translate(201,177)"/>
<path d="M0 0 C1.32 0 2.64 0 4 0 C4 4.29 4 8.58 4 13 C1.69 13 -0.62 13 -3 13 C-3 14.98 -3 16.96 -3 19 C-3.33 19 -3.66 19 -4 19 C-4 16.69 -4 14.38 -4 12 C-1.69 12 0.62 12 3 12 C2.67 10.35 2.34 8.7 2 7 C0.35 7 -1.3 7 -3 7 C-2.01 6.67 -1.02 6.34 0 6 C0 4.02 0 2.04 0 0 Z " fill="#98AEBF" transform="translate(172,195)"/>
<path d="M0 0 C0 0.99 0 1.98 0 3 C-5.94 4.32 -11.88 5.64 -18 7 C-17.67 6.01 -17.34 5.02 -17 4 C-14.453125 2.83203125 -14.453125 2.83203125 -11.25 1.8125 C-10.20328125 1.46832031 -9.1565625 1.12414062 -8.078125 0.76953125 C-5.22909507 0.05727377 -2.91669884 -0.15663753 0 0 Z " fill="#D1DFE9" transform="translate(299,177)"/>
<path d="M0 0 C1.65 0.33 3.3 0.66 5 1 C4.34 1.66 3.68 2.32 3 3 C3 2.34 3 1.68 3 1 C2.34 1 1.68 1 1 1 C1.33 5.29 1.66 9.58 2 14 C0.68 14 -0.64 14 -2 14 C-2.25028811 12.41986783 -2.47440946 10.83557694 -2.6875 9.25 C-2.81511719 8.36828125 -2.94273437 7.4865625 -3.07421875 6.578125 C-2.98397191 3.44323483 -2.07384637 2.28176413 0 0 Z " fill="#385B87" transform="translate(334,334)"/>
<path d="M0 0 C0.66 0 1.32 0 2 0 C2 4.29 2 8.58 2 13 C3.32 13 4.64 13 6 13 C6 15.31 6 17.62 6 20 C5.34 20 4.68 20 4 20 C4 18.35 4 16.7 4 15 C2.68 15 1.36 15 0 15 C0 10.05 0 5.1 0 0 Z " fill="#94CAE3" transform="translate(241,140)"/>
<path d="M0 0 C2.125 0.375 2.125 0.375 4 1 C4.33 2.32 4.66 3.64 5 5 C3.68 5 2.36 5 1 5 C1.7763932 8.0745356 1.7763932 8.0745356 4 10 C2.33388095 10.042721 0.66617115 10.04063832 -1 10 C-2 9 -2 9 -2.1875 5.5625 C-2 2 -2 2 0 0 Z " fill="#486891" transform="translate(291,338)"/>
<path d="M0 0 C2.56280208 0.14154136 5.12515485 0.28808562 7.6875 0.4375 C8.40873047 0.47681641 9.12996094 0.51613281 9.87304688 0.55664062 C13.66707282 0.78185678 17.28651492 1.12839305 21 2 C21 2.33 21 2.66 21 3 C16.50832172 4.19600901 12.26730207 3.9185704 7.6875 3.5625 C6.57665039 3.48418945 6.57665039 3.48418945 5.44335938 3.40429688 C3.62847291 3.27549848 1.81416675 3.13856738 0 3 C0 2.01 0 1.02 0 0 Z " fill="#D8E4EA" transform="translate(176,233)"/>
<path d="M0 0 C0 0.66 0 1.32 0 2 C0.66 2 1.32 2 2 2 C2 2.66 2 3.32 2 4 C-0.40545638 5.20272819 -1.94996953 5.10071472 -4.625 5.0625 C-5.85089844 5.04896484 -5.85089844 5.04896484 -7.1015625 5.03515625 C-8.04128906 5.01775391 -8.04128906 5.01775391 -9 5 C-9.66 3.68 -10.32 2.36 -11 1 C-7.26562152 0.12132271 -3.83225427 -0.08912219 0 0 Z " fill="#073766" transform="translate(303,229)"/>
<path d="M0 0 C0 0.66 0 1.32 0 2 C-2.26727333 3.17407021 -4.53834624 4.33939739 -6.8125 5.5 C-7.45509766 5.83386719 -8.09769531 6.16773438 -8.75976562 6.51171875 C-11.69547699 8.00239084 -13.66126517 9 -17 9 C-16 6 -16 6 -13.41796875 4.39453125 C-12.35191406 3.87246094 -11.28585937 3.35039062 -10.1875 2.8125 C-9.12917969 2.28269531 -8.07085937 1.75289062 -6.98046875 1.20703125 C-4 0 -4 0 0 0 Z " fill="#D1E0E9" transform="translate(281,213)"/>
<path d="M0 0 C-0.66666667 2.66666667 -1.33333333 5.33333333 -2 8 C-3.65 8 -5.3 8 -7 8 C-7 7.01 -7 6.02 -7 5 C-8.43750191 3.31201173 -8.43750191 3.31201173 -10 2 C-6.38026598 0.68373308 -3.90432869 0 0 0 Z " fill="#405F82" transform="translate(293,181)"/>
<path d="M0 0 C0.66 0 1.32 0 2 0 C2.13277344 0.60328125 2.26554687 1.2065625 2.40234375 1.828125 C2.57894531 2.62734375 2.75554687 3.4265625 2.9375 4.25 C3.11152344 5.03890625 3.28554688 5.8278125 3.46484375 6.640625 C3.81127617 8.1679621 4.20333467 9.6859483 4.6484375 11.1875 C4.76445312 11.785625 4.88046875 12.38375 5 13 C3.6875 14.75 3.6875 14.75 2 16 C1.34 16 0.68 16 0 16 C0 10.72 0 5.44 0 0 Z " fill="#0A3365" transform="translate(320,178)"/>
<path d="M0 0 C0 0.66 0 1.32 0 2 C0.66 2.33 1.32 2.66 2 3 C1.01 3 0.02 3 -1 3 C-1.33 3.99 -1.66 4.98 -2 6 C-2.33 6.66 -2.66 7.32 -3 8 C-3.99 7.67 -4.98 7.34 -6 7 C-5.34 6.67 -4.68 6.34 -4 6 C-4 5.34 -4 4.68 -4 4 C-6.31 4.66 -8.62 5.32 -11 6 C-10.875 4.1875 -10.875 4.1875 -10 2 C-6.45371784 -0.28538184 -4.05371308 -1.71503246 0 0 Z " fill="#1C3F66" transform="translate(280,179)"/>
<path d="M0 0 C0.99 0 1.98 0 3 0 C3 3.3 3 6.6 3 10 C1.02 9.34 -0.96 8.68 -3 8 C-2.45276317 4.62537285 -1.9451 2.91765 0 0 Z " fill="#E8EBF0" transform="translate(170,282)"/>
<path d="M0 0 C2.64 0.33 5.28 0.66 8 1 C7.67 2.98 7.34 4.96 7 7 C3.7 6.34 0.4 5.68 -3 5 C-2.67 4.01 -2.34 3.02 -2 2 C-1.34 2 -0.68 2 0 2 C0 1.34 0 0.68 0 0 Z " fill="#26466C" transform="translate(208,173)"/>
<path d="M0 0 C0.66 0 1.32 0 2 0 C2 4.95 2 9.9 2 15 C0.68 15 -0.64 15 -2 15 C-2 16.32 -2 17.64 -2 19 C-2.66 19 -3.32 19 -4 19 C-4 17.02 -4 15.04 -4 13 C-2.68 13 -1.36 13 0 13 C0 8.71 0 4.42 0 0 Z " fill="#9BCBE4" transform="translate(258,140)"/>
<path d="M0 0 C1.32 0 2.64 0 4 0 C4.33 4.62 4.66 9.24 5 14 C3.35 14 1.7 14 0 14 C0 9.38 0 4.76 0 0 Z " fill="#244B7B" transform="translate(354,334)"/>
<path d="M0 0 C1.32 0 2.64 0 4 0 C4 4.62 4 9.24 4 14 C2.68 13.67 1.36 13.34 0 13 C0 8.71 0 4.42 0 0 Z " fill="#2F5482" transform="translate(226,334)"/>
<path d="M0 0 C0.99 0.33 1.98 0.66 3 1 C3.33 3.64 3.66 6.28 4 9 C3.21625 8.979375 2.4325 8.95875 1.625 8.9375 C-0.98114961 8.81315937 -0.98114961 8.81315937 -3 10 C-2.49287967 6.28111761 -1.88391785 3.26545761 0 0 Z " fill="#395C88" transform="translate(261,309)"/>
<path d="M0 0 C0.66 0 1.32 0 2 0 C2 0.66 2 1.32 2 2 C3.65 2.33 5.3 2.66 7 3 C7 6.3 7 9.6 7 13 C3.43992642 10.62661762 3.14889227 9.33809432 1.8125 5.375 C1.46832031 4.37210937 1.12414062 3.36921875 0.76953125 2.3359375 C0.38861328 1.17964844 0.38861328 1.17964844 0 0 Z " fill="#EEF0F4" transform="translate(216,278)"/>
<path d="M0 0 C1.65 0 3.3 0 5 0 C5.05416188 1.60379341 5.09286638 3.20811406 5.125 4.8125 C5.14820313 5.70582031 5.17140625 6.59914062 5.1953125 7.51953125 C5 10 5 10 3 13 C2.65777555 17.65417169 2.65777555 17.65417169 4 22 C3.01 22 2.02 22 1 22 C1 17.71 1 13.42 1 9 C1.99 9 2.98 9 4 9 C4 6.36 4 3.72 4 1 C3.01 1 2.02 1 1 1 C1 1.99 1 2.98 1 4 C0.01 4.33 -0.98 4.66 -2 5 C-2 4.01 -2 3.02 -2 2 C-1.34 2 -0.68 2 0 2 C0 1.34 0 0.68 0 0 Z " fill="#E7FAFB" transform="translate(243,130)"/>
<path d="M0 0 C1.2065625 0.0309375 1.2065625 0.0309375 2.4375 0.0625 C2.4375 0.7225 2.4375 1.3825 2.4375 2.0625 C1.4475 2.0625 0.4575 2.0625 -0.5625 2.0625 C-0.5625 2.7225 -0.5625 3.3825 -0.5625 4.0625 C0.0975 4.3925 0.7575 4.7225 1.4375 5.0625 C0.4475 5.5575 0.4475 5.5575 -0.5625 6.0625 C0.4275 6.3925 1.4175 6.7225 2.4375 7.0625 C2.1075 8.0525 1.7775 9.0425 1.4375 10.0625 C-0.2125 9.7325 -1.8625 9.4025 -3.5625 9.0625 C-3.66015625 2.91015625 -3.66015625 2.91015625 -3.5625 1.0625 C-2.5625 0.0625 -2.5625 0.0625 0 0 Z " fill="#1B4376" transform="translate(186.5625,307.9375)"/>
<path d="M0 0 C3 1 3 1 4 3 C4.039992 4.99960012 4.04346799 7.00047242 4 9 C3.21625 8.979375 2.4325 8.95875 1.625 8.9375 C-0.98114961 8.81315937 -0.98114961 8.81315937 -3 10 C-2.49287967 6.28111761 -1.88391785 3.26545761 0 0 Z " fill="#345885" transform="translate(195,309)"/>
<path d="M0 0 C1.65 0 3.3 0 5 0 C5 0.66 5 1.32 5 2 C4.34 2 3.68 2 3 2 C3 2.66 3 3.32 3 4 C3.66 4.33 4.32 4.66 5 5 C4.01 5.495 4.01 5.495 3 6 C3.99 6.33 4.98 6.66 6 7 C6 7.66 6 8.32 6 9 C4.02 9.33 2.04 9.66 0 10 C0 6.7 0 3.4 0 0 Z " fill="#264C7C" transform="translate(298,308)"/>
<path d="M0 0 C0.66 0 1.32 0 2 0 C2 3.3 2 6.6 2 10 C1.01 10.495 1.01 10.495 0 11 C0 10.34 0 9.68 0 9 C-0.99 9 -1.98 9 -3 9 C-2.25 2.25 -2.25 2.25 0 0 Z " fill="#F2F4F7" transform="translate(144,282)"/>
<path d="M0 0 C2.97 0.495 2.97 0.495 6 1 C6.33 2.65 6.66 4.3 7 6 C6.360625 5.814375 5.72125 5.62875 5.0625 5.4375 C4.0415625 5.2209375 4.0415625 5.2209375 3 5 C2.67 5.33 2.34 5.66 2 6 C0.00041636 6.04080783 -2.00045254 6.04254356 -4 6 C-4.33 5.34 -4.66 4.68 -5 4 C-4.01 4 -3.02 4 -2 4 C-2 3.34 -2 2.68 -2 2 C-1.34 2 -0.68 2 0 2 C0 1.34 0 0.68 0 0 Z " fill="#103664" transform="translate(232,240)"/>
<path d="M0 0 C2.97 0 5.94 0 9 0 C9 1.98 9 3.96 9 6 C5.7 5.01 2.4 4.02 -1 3 C-0.67 2.01 -0.34 1.02 0 0 Z " fill="#0F3968" transform="translate(323,208)"/>
<path d="M0 0 C0.33 0.99 0.66 1.98 1 3 C1.66 3 2.32 3 3 3 C3 3.66 3 4.32 3 5 C2.34 5 1.68 5 1 5 C1.33 7.64 1.66 10.28 2 13 C0.68 12.67 -0.64 12.34 -2 12 C-2.05422947 10.5629191 -2.09289723 9.12524538 -2.125 7.6875 C-2.14820313 6.88699219 -2.17140625 6.08648437 -2.1953125 5.26171875 C-2 3 -2 3 0 0 Z " fill="#325683" transform="translate(368,335)"/>
<path d="M0 0 C0.33 0.99 0.66 1.98 1 3 C1.66 3 2.32 3 3 3 C3 3.66 3 4.32 3 5 C2.34 5 1.68 5 1 5 C1.33 7.64 1.66 10.28 2 13 C0.68 12.67 -0.64 12.34 -2 12 C-2.05422947 10.5629191 -2.09289723 9.12524538 -2.125 7.6875 C-2.14820313 6.88699219 -2.17140625 6.08648437 -2.1953125 5.26171875 C-2 3 -2 3 0 0 Z " fill="#325683" transform="translate(268,335)"/>
<path d="M0 0 C0.33 0.99 0.66 1.98 1 3 C1.66 3 2.32 3 3 3 C3 3.66 3 4.32 3 5 C2.34 5 1.68 5 1 5 C1.33 7.64 1.66 10.28 2 13 C0.68 12.67 -0.64 12.34 -2 12 C-2.05422947 10.5629191 -2.09289723 9.12524538 -2.125 7.6875 C-2.14820313 6.88699219 -2.17140625 6.08648437 -2.1953125 5.26171875 C-2 3 -2 3 0 0 Z " fill="#325683" transform="translate(173,335)"/>
<path d="M0 0 C2.31 0 4.62 0 7 0 C7 1.98 7 3.96 7 6 C4.69 6 2.38 6 0 6 C0 4.02 0 2.04 0 0 Z " fill="#E6EFF4" transform="translate(325,183)"/>
<path d="M0 0 C0 0.66 0 1.32 0 2 C-1.32 2 -2.64 2 -4 2 C-4 4.31 -4 6.62 -4 9 C-5.32 8.67 -6.64 8.34 -8 8 C-7.67 5.36 -7.34 2.72 -7 0 C-3.98968256 -0.93423645 -3.13349732 -1.04449911 0 0 Z " fill="#103A6F" transform="translate(113,339)"/>
<path d="M0 0 C1.65 0.33 3.3 0.66 5 1 C5 1.99 5 2.98 5 4 C3.68 4 2.36 4 1 4 C1 4.66 1 5.32 1 6 C1.99 6 2.98 6 4 6 C4 6.99 4 7.98 4 9 C2.35 8.67 0.7 8.34 -1 8 C-1.625 5.6875 -1.625 5.6875 -2 3 C-1.34 2.01 -0.68 1.02 0 0 Z " fill="#2F5382" transform="translate(270,309)"/>
<path d="M0 0 C0.66 0 1.32 0 2 0 C3.4783226 2.95664519 3.06032783 5.74229737 3 9 C1.02 9 -0.96 9 -3 9 C-2.5020163 5.26512223 -2.12508244 3.18762365 0 0 Z " fill="#2B507F" transform="translate(281,309)"/>
<path d="M0 0 C4.92127034 -0.16682272 8.50343896 -0.24828052 13 2 C13 2.66 13 3.32 13 4 C9.04 3.67 5.08 3.34 1 3 C0.67 2.01 0.34 1.02 0 0 Z " fill="#B7CCD9" transform="translate(202,209)"/>
<path d="M0 0 C0.99 0 1.98 0 3 0 C4.8125 2 4.8125 2 6 5 C5.65296526 7.84463322 4.88588551 10.24909236 4 13 C2.68 13 1.36 13 0 13 C0 12.34 0 11.68 0 11 C0.66 11 1.32 11 2 11 C1.25640327 5.44946714 1.25640327 5.44946714 0 0 Z " fill="#375B87" transform="translate(114,339)"/>
<path d="M0 0 C0.33 0 0.66 0 1 0 C1 6.27 1 12.54 1 19 C-2.8726592 19.9681648 -6.03611362 20.07622858 -10 20 C-10 19.67 -10 19.34 -10 19 C-7.03 18.01 -4.06 17.02 -1 16 C-0.67 10.72 -0.34 5.44 0 0 Z " fill="#234263" transform="translate(324,214)"/>
<path d="M0 0 C0.66 0 1.32 0 2 0 C2.66 1.65 3.32 3.3 4 5 C3.34 5 2.68 5 2 5 C2 5.99 2 6.98 2 8 C-0.375 7.75 -0.375 7.75 -3 7 C-4.3125 4.9375 -4.3125 4.9375 -5 3 C-3.68 3 -2.36 3 -1 3 C-0.67 2.01 -0.34 1.02 0 0 Z " fill="#607D9B" transform="translate(235,200)"/>
<path d="M0 0 C2.31 0 4.62 0 7 0 C7 3.63 7 7.26 7 11 C6.01 10.67 5.02 10.34 4 10 C4 7.69 4 5.38 4 3 C2.68 3 1.36 3 0 3 C0 2.01 0 1.02 0 0 Z " fill="#A8D8EB" transform="translate(263,129)"/>
<path d="M0 0 C0.66 0 1.32 0 2 0 C2 2.31 2 4.62 2 7 C2.99 7 3.98 7 5 7 C5 7.66 5 8.32 5 9 C3.34385343 9.38218767 1.67542976 9.71395102 0 10 C-1 9 -1 9 -1.1328125 7.1875 C-1.13023437 6.465625 -1.12765625 5.74375 -1.125 5 C-1.12757813 4.278125 -1.13015625 3.55625 -1.1328125 2.8125 C-1 1 -1 1 0 0 Z " fill="#2E5381" transform="translate(175,308)"/>
<path d="M0 0 C0 0.66 0 1.32 0 2 C-3.96 3.98 -7.92 5.96 -12 8 C-12.33 7.01 -12.66 6.02 -13 5 C-11.58957044 4.15615325 -10.17135868 3.32530504 -8.75 2.5 C-7.56664062 1.80390625 -7.56664062 1.80390625 -6.359375 1.09375 C-4 0 -4 0 0 0 Z " fill="#C1D3E0" transform="translate(276,183)"/>
<path d="M0 0 C0.33 3.96 0.66 7.92 1 12 C-0.32 11.67 -1.64 11.34 -3 11 C-4.35064935 3.51003542 -4.35064935 3.51003542 -2.625 1 C-1 0 -1 0 0 0 Z " fill="#284E7E" transform="translate(391,336)"/>
<path d="M0 0 C1.9375 0.75 1.9375 0.75 4 2 C4.75 4.125 4.75 4.125 5 6 C3.02 6.99 3.02 6.99 1 8 C-1 5 -1 5 -0.625 2.3125 C-0.41875 1.549375 -0.2125 0.78625 0 0 Z " fill="#E7EBF0" transform="translate(280,278)"/>
<path d="M0 0 C0 0.66 0 1.32 0 2 C-8.42857143 4.28571429 -8.42857143 4.28571429 -13 4 C-12.67 3.01 -12.34 2.02 -12 1 C-8.32433144 -0.61729417 -3.92760325 -0.06546005 0 0 Z " fill="#C8D8E3" transform="translate(299,209)"/>
<path d="M0 0 C0.33 1.32 0.66 2.64 1 4 C2.65 4.33 4.3 4.66 6 5 C5.01 6.485 5.01 6.485 4 8 C0.42032008 6.34784004 -2.77982952 4.26875648 -6 2 C-6 1.67 -6 1.34 -6 1 C-4.02 0.67 -2.04 0.34 0 0 Z " fill="#2D496C" transform="translate(247,252)"/>
<path d="M0 0 C2.31 0.33 4.62 0.66 7 1 C6.01 1.495 6.01 1.495 5 2 C5.165 2.598125 5.33 3.19625 5.5 3.8125 C6 6 6 6 6 9 C3.03 8.505 3.03 8.505 0 8 C1.875 3.25 1.875 3.25 3 1 C2.01 0.67 1.02 0.34 0 0 Z " fill="#294971" transform="translate(200,229)"/>
<path d="M0 0 C0.66 0 1.32 0 2 0 C2.33 2.64 2.66 5.28 3 8 C0.36 8 -2.28 8 -5 8 C-5 6.68 -5 5.36 -5 4 C-4.34 4 -3.68 4 -3 4 C-3 4.66 -3 5.32 -3 6 C-2.01 6 -1.02 6 0 6 C-0.185625 5.38125 -0.37125 4.7625 -0.5625 4.125 C-1 2 -1 2 0 0 Z " fill="#204779" transform="translate(344,340)"/>
<path d="M0 0 C1.32 0 2.64 0 4 0 C4 2.97 4 5.94 4 9 C4.66 9.33 5.32 9.66 6 10 C4.35 9.67 2.7 9.34 1 9 C0.67 6.03 0.34 3.06 0 0 Z " fill="#3A5D88" transform="translate(253,338)"/>
<path d="M0 0 C2 2 2 2 2.125 5.625 C2.08375 6.73875 2.0425 7.8525 2 9 C0.68 9 -0.64 9 -2 9 C-2 6.69 -2 4.38 -2 2 C-1.34 2 -0.68 2 0 2 C0 1.34 0 0.68 0 0 Z " fill="#EAEDF1" transform="translate(176,338)"/>
<path d="M0 0 C0 2.31 0 4.62 0 7 C-1.32 7.33 -2.64 7.66 -4 8 C-4.6875 5.6875 -4.6875 5.6875 -5 3 C-3.40083326 0.79162689 -2.76966516 0 0 0 Z " fill="#F1F3F6" transform="translate(244,284)"/>
<path d="M0 0 C0.66 0.99 1.32 1.98 2 3 C1.01 3.495 1.01 3.495 0 4 C0.33 4.66 0.66 5.32 1 6 C-1.97 6 -4.94 6 -8 6 C-6 2 -6 2 -2.875 0.75 C-1.92625 0.5025 -0.9775 0.255 0 0 Z " fill="#093364" transform="translate(283,235)"/>
<path d="M0 0 C-0.66 0 -1.32 0 -2 0 C-2 0.66 -2 1.32 -2 2 C0.97 2.495 0.97 2.495 4 3 C4 3.99 4 4.98 4 6 C3.34 6 2.68 6 2 6 C2 5.34 2 4.68 2 4 C-0.97 4 -3.94 4 -7 4 C-7 3.34 -7 2.68 -7 2 C-7.66 1.34 -8.32 0.68 -9 0 C-3.375 -1.125 -3.375 -1.125 0 0 Z " fill="#3A557B" transform="translate(297,205)"/>
<path d="M0 0 C4.75481646 0.57634139 7.97048212 2.55068521 12 5 C12 5.66 12 6.32 12 7 C7.24518354 6.42365861 4.02951788 4.44931479 0 2 C0 1.34 0 0.68 0 0 Z " fill="#C7DCE7" transform="translate(225,183)"/>
<path d="M0 0 C0.66 0 1.32 0 2 0 C2.33 1.98 2.66 3.96 3 6 C-0.3 5.34 -3.6 4.68 -7 4 C-7.33 3.01 -7.66 2.02 -8 1 C-6.865625 1.020625 -5.73125 1.04125 -4.5625 1.0625 C-1.18424326 1.41577477 -1.18424326 1.41577477 0 0 Z " fill="#083564" transform="translate(218,234)"/>
<path d="M0 0 C1.98 0.495 1.98 0.495 4 1 C4 3.64 4 6.28 4 9 C2.35 9 0.7 9 -1 9 C-0.67 6.03 -0.34 3.06 0 0 Z " fill="#1E4678" transform="translate(318,339)"/>
<path d="M0 0 C9.73995772 -0.57293869 9.73995772 -0.57293869 14 3 C14 3.66 14 4.32 14 5 C12.03964825 4.55037804 10.08175691 4.09001752 8.125 3.625 C7.03445312 3.36976563 5.94390625 3.11453125 4.8203125 2.8515625 C2 2 2 2 0 0 Z " fill="#284769" transform="translate(208,238)"/>
<path d="M0 0 C1.32 0.33 2.64 0.66 4 1 C4 3.64 4 6.28 4 9 C2.68 9 1.36 9 0 9 C0 6.03 0 3.06 0 0 Z " fill="#234A7B" transform="translate(395,339)"/>
<path d="M0 0 C1.9375 0.75 1.9375 0.75 4 2 C4.75 4.125 4.75 4.125 5 6 C3.02 6.99 3.02 6.99 1 8 C-0.35439668 5.29120665 -0.06501451 2.99066732 0 0 Z " fill="#F6F7F9" transform="translate(323,278)"/>
<path d="M0 0 C1.99954746 -0.04254356 4.00041636 -0.04080783 6 0 C7 1 7 1 7.0625 3.5625 C7.041875 4.366875 7.02125 5.17125 7 6 C6.01 6 5.02 6 4 6 C4 5.01 4 4.02 4 3 C2.68 3 1.36 3 0 3 C0 2.01 0 1.02 0 0 Z " fill="#12345C" transform="translate(165,195)"/>
<path d="M0 0 C0.99 0 1.98 0 3 0 C3 2.64 3 5.28 3 8 C0.525 7.01 0.525 7.01 -2 6 C-2 5.01 -2 4.02 -2 3 C-1.34 3 -0.68 3 0 3 C0 2.01 0 1.02 0 0 Z " fill="#98CFE4" transform="translate(244,131)"/>
<path d="M0 0 C0.99 0 1.98 0 3 0 C3.33 2.97 3.66 5.94 4 9 C2.68 9 1.36 9 0 9 C0 6.03 0 3.06 0 0 Z " fill="#214979" transform="translate(349,339)"/>
<path d="M0 0 C0.99 0 1.98 0 3 0 C3.33 1.32 3.66 2.64 4 4 C4.66 4 5.32 4 6 4 C5.67 5.65 5.34 7.3 5 9 C4.34 9 3.68 9 3 9 C2.01 6.03 1.02 3.06 0 0 Z " fill="#305482" transform="translate(298,339)"/>
<path d="M0 0 C0.99 0 1.98 0 3 0 C3 2.97 3 5.94 3 9 C1.68 8.67 0.36 8.34 -1 8 C-0.67 5.36 -0.34 2.72 0 0 Z " fill="#1A4275" transform="translate(221,339)"/>
<path d="M0 0 C0.99 0 1.98 0 3 0 C3 2.97 3 5.94 3 9 C1.68 8.67 0.36 8.34 -1 8 C-0.67 5.36 -0.34 2.72 0 0 Z " fill="#284E7D" transform="translate(149,339)"/>
<path d="M0 0 C0.99 0.66 1.98 1.32 3 2 C2.67 2.66 2.34 3.32 2 4 C2.66 4.33 3.32 4.66 4 5 C0.7 5 -2.6 5 -6 5 C-6 4.34 -6 3.68 -6 3 C-4.68 3 -3.36 3 -2 3 C-2 2.34 -2 1.68 -2 1 C-1.34 0.67 -0.68 0.34 0 0 Z " fill="#31547D" transform="translate(230,197)"/>
<path d="M0 0 C0.99 0 1.98 0 3 0 C5.22923777 4.32734391 4.92470553 7.28400182 4 12 C3.67 12 3.34 12 3 12 C2 8 1 4 0 0 Z " fill="#2C5180" transform="translate(404,339)"/>
<path d="M0 0 C0.99 0.33 1.98 0.66 3 1 C3 3.64 3 6.28 3 9 C1.68 8.67 0.36 8.34 -1 8 C-0.67 5.36 -0.34 2.72 0 0 Z " fill="#21487A" transform="translate(178,339)"/>
<path d="M0 0 C3.33333333 0 6.66666667 0 10 0 C9.34 1.98 8.68 3.96 8 6 C7.01 5.67 6.02 5.34 5 5 C4.3125 2.9375 4.3125 2.9375 4 1 C2.68 0.67 1.36 0.34 0 0 Z " fill="#ADBBCE" transform="translate(113,338)"/>
<path d="M0 0 C0.33 0 0.66 0 1 0 C1 3.63 1 7.26 1 11 C1.66 11.33 2.32 11.66 3 12 C1.68 12 0.36 12 -1 12 C-1.22162329 10.37675914 -1.42689803 8.751279 -1.625 7.125 C-1.74101563 6.22007812 -1.85703125 5.31515625 -1.9765625 4.3828125 C-1.98429687 3.59648437 -1.99203125 2.81015625 -2 2 C-1.34 1.34 -0.68 0.68 0 0 Z " fill="#1D4577" transform="translate(100,336)"/>
<path d="M0 0 C0.99 0 1.98 0 3 0 C3 2.64 3 5.28 3 8 C2.01 8.495 2.01 8.495 1 9 C-1.14809171 5.77786243 -1.29386153 4.72224599 -1 1 C-0.67 0.67 -0.34 0.34 0 0 Z " fill="#2A507F" transform="translate(314,309)"/>
<path d="M0 0 C0.66 0.33 1.32 0.66 2 1 C2 2.65 2 4.3 2 6 C3.32 6.66 4.64 7.32 6 8 C5 9 5 9 2.4375 9.0625 C1.633125 9.041875 0.82875 9.02125 0 9 C-1.36623674 6.26752652 -1.128426 4.01801098 -1 1 C-0.67 0.67 -0.34 0.34 0 0 Z " fill="#2B507F" transform="translate(309,339)"/>
<path d="M0 0 C3.3 0 6.6 0 10 0 C9.34 1.65 8.68 3.3 8 5 C7.01 5 6.02 5 5 5 C4.67 3.68 4.34 2.36 4 1 C2.68 1.33 1.36 1.66 0 2 C0 1.34 0 0.68 0 0 Z " fill="#B4C1D1" transform="translate(297,338)"/>
<path d="M0 0 C0.66 0 1.32 0 2 0 C3.15926382 4.25063401 2.90949326 7.70057734 2 12 C1.01 12.495 1.01 12.495 0 13 C0 8.71 0 4.42 0 0 Z " fill="#0D386E" transform="translate(243,335)"/>
<path d="M0 0 C2.97 0.495 2.97 0.495 6 1 C5.34 3.64 4.68 6.28 4 9 C3.34 9 2.68 9 2 9 C1.34 6.03 0.68 3.06 0 0 Z " fill="#1F4678" transform="translate(320,309)"/>
<path d="M0 0 C2.31 0.33 4.62 0.66 7 1 C7 1.66 7 2.32 7 3 C6.34 3.66 5.68 4.32 5 5 C5 5.33 5 5.66 5 6 C2.69 6 0.38 6 -2 6 C-1.01 5.34 -0.02 4.68 1 4 C1.33 3.01 1.66 2.02 2 1 C1.34 0.67 0.68 0.34 0 0 Z " fill="#2F4C72" transform="translate(203,163)"/>
<path d="M0 0 C0.99 0 1.98 0 3 0 C3 2.31 3 4.62 3 7 C3.66 7 4.32 7 5 7 C5 7.66 5 8.32 5 9 C3.35 8.67 1.7 8.34 0 8 C0 5.36 0 2.72 0 0 Z " fill="#8DC8E4" transform="translate(233,141)"/>
<path d="M0 0 C2.97 0.99 5.94 1.98 9 3 C8.67 3.99 8.34 4.98 8 6 C2.25 4.125 2.25 4.125 0 3 C0 2.01 0 1.02 0 0 Z " fill="#BACCD9" transform="translate(219,212)"/>
<path d="M0 0 C2.64 0 5.28 0 8 0 C7.67 1.32 7.34 2.64 7 4 C4.69 3.67 2.38 3.34 0 3 C0 2.01 0 1.02 0 0 Z " fill="#0D386C" transform="translate(170,209)"/>
<path d="M0 0 C0.66 0.33 1.32 0.66 2 1 C2.125 4.375 2.125 4.375 2 8 C1.34 8.66 0.68 9.32 0 10 C-1.49106457 7.01787087 -1.11941467 4.28390342 -1 1 C-0.67 0.67 -0.34 0.34 0 0 Z " fill="#E2E6ED" transform="translate(376,339)"/>
<path d="M0 0 C2 1 2 1 3 3 C2.34 3 1.68 3 1 3 C1 4.98 1 6.96 1 9 C0.67 9 0.34 9 0 9 C-0.33 7.35 -0.66 5.7 -1 4 C-2.65 5.32 -4.3 6.64 -6 8 C-4.55746343 4.63408134 -2.66735273 2.48952921 0 0 Z " fill="#45658F" transform="translate(190,276)"/>
<path d="M0 0 C0.91007812 0.00902344 1.82015625 0.01804688 2.7578125 0.02734375 C3.45648438 0.03894531 4.15515625 0.05054688 4.875 0.0625 C4.875 0.3925 4.875 0.7225 4.875 1.0625 C4.23691406 1.18367187 3.59882813 1.30484375 2.94140625 1.4296875 C1.70197266 1.68105469 1.70197266 1.68105469 0.4375 1.9375 C-0.38621094 2.09992188 -1.20992187 2.26234375 -2.05859375 2.4296875 C-2.74050781 2.63851562 -3.42242187 2.84734375 -4.125 3.0625 C-4.455 3.7225 -4.785 4.3825 -5.125 5.0625 C-5.785 5.0625 -6.445 5.0625 -7.125 5.0625 C-7.125 3.7425 -7.125 2.4225 -7.125 1.0625 C-4.60024538 -0.19987731 -2.81299534 -0.03606404 0 0 Z " fill="#0C3463" transform="translate(257.125,249.9375)"/>
<path d="M0 0 C1.98567708 0.09765625 3.97135417 0.1953125 5.95703125 0.29296875 C4.96703125 0.95296875 3.97703125 1.61296875 2.95703125 2.29296875 C3.94703125 3.77796875 3.94703125 3.77796875 4.95703125 5.29296875 C1.65703125 4.63296875 -1.64296875 3.97296875 -5.04296875 3.29296875 C-2.04296875 0.29296875 -2.04296875 0.29296875 0 0 Z " fill="#CDD8E2" transform="translate(212.04296875,227.70703125)"/>
<path d="M0 0 C-0.33 0.99 -0.66 1.98 -1 3 C-4.5625 4.1875 -4.5625 4.1875 -8 5 C-8.33 4.01 -8.66 3.02 -9 2 C-5.86501708 0.14223235 -3.62528568 -0.20140476 0 0 Z " fill="#B9CDD8" transform="translate(283,190)"/>
<path d="M0 0 C5.75 1.75 5.75 1.75 8 4 C5.03 4.66 2.06 5.32 -1 6 C-1.33 5.34 -1.66 4.68 -2 4 C-1.01 3.34 -0.02 2.68 1 2 C0.67 1.34 0.34 0.68 0 0 Z " fill="#224068" transform="translate(283,175)"/>
<path d="M0 0 C0 0.66 0 1.32 0 2 C-2.75078884 2.91692961 -4.35948913 3.10886083 -7.1875 3.0625 C-9.0746875 3.0315625 -9.0746875 3.0315625 -11 3 C-10 1 -10 1 -8.3125 0.375 C-5.51555886 -0.07855802 -2.82858003 -0.06428591 0 0 Z " fill="#D3E5EF" transform="translate(299,161)"/>
<path d="M0 0 C-0.33 0.99 -0.66 1.98 -1 3 C-4.3 2.67 -7.6 2.34 -11 2 C-11 1.67 -11 1.34 -11 1 C-7.26562152 0.12132271 -3.83225427 -0.08912219 0 0 Z " fill="#304D70" transform="translate(303,229)"/>
<path d="M0 0 C0.66 1.32 1.32 2.64 2 4 C-1.14624993 4.26218749 -2.61837017 4.24754367 -5.3125 2.5 C-5.869375 2.005 -6.42625 1.51 -7 1 C-4.53721199 -0.231394 -2.7204945 -0.07159196 0 0 Z " fill="#F2F7F9" transform="translate(220,229)"/>
<path d="M0 0 C0 0.66 0 1.32 0 2 C-0.66 2 -1.32 2 -2 2 C-2.33 3.65 -2.66 5.3 -3 7 C-3.99 7.33 -4.98 7.66 -6 8 C-6 6.02 -6 4.04 -6 2 C-2.25 0 -2.25 0 0 0 Z " fill="#1E3F63" transform="translate(270,198)"/>
<path d="M0 0 C0.99 0 1.98 0 3 0 C3.04254356 1.99954746 3.04080783 4.00041636 3 6 C2 7 2 7 -0.5625 7.0625 C-1.7690625 7.0315625 -1.7690625 7.0315625 -3 7 C-2.01 6.67 -1.02 6.34 0 6 C0 4.02 0 2.04 0 0 Z " fill="#C6D4DE" transform="translate(172,195)"/>
<path d="M0 0 C2.31 0 4.62 0 7 0 C6.34 0.66 5.68 1.32 5 2 C5.66 2.66 6.32 3.32 7 4 C2.25 5.125 2.25 5.125 0 4 C0 2.68 0 1.36 0 0 Z " fill="#183C69" transform="translate(169,191)"/>
<path d="M0 0 C1.485 0.99 1.485 0.99 3 2 C3.1875 4.625 3.1875 4.625 3 7 C1.02 7.99 1.02 7.99 -1 9 C-0.67 6.03 -0.34 3.06 0 0 Z " fill="#254B7C" transform="translate(378,339)"/>
<path d="M0 0 C4.29 0 8.58 0 13 0 C13 0.33 13 0.66 13 1 C11.35 1 9.7 1 8 1 C8 1.66 8 2.32 8 3 C5.36 2.67 2.72 2.34 0 2 C0 1.34 0 0.68 0 0 Z " fill="#7C93B0" transform="translate(177,338)"/>
<path d="M0 0 C4.62 0 9.24 0 14 0 C14 0.99 14 1.98 14 3 C9.38 2.34 4.76 1.68 0 1 C0 0.67 0 0.34 0 0 Z M11 3 C13 4 13 4 13 4 Z " fill="#375576" transform="translate(304,228)"/>
<path d="M0 0 C2.97 0.33 5.94 0.66 9 1 C8.67 1.99 8.34 2.98 8 4 C5.36 3.67 2.72 3.34 0 3 C0 2.01 0 1.02 0 0 Z " fill="#BACDDC" transform="translate(201,201)"/>
<path d="M0 0 C0.66 0.33 1.32 0.66 2 1 C1.67 1.66 1.34 2.32 1 3 C0.34 3 -0.32 3 -1 3 C-0.67 3.99 -0.34 4.98 0 6 C-0.99 7.485 -0.99 7.485 -2 9 C-2 8.34 -2 7.68 -2 7 C-2.99 6.67 -3.98 6.34 -5 6 C-3.63016497 2.83884224 -3.0109362 2.0072908 0 0 Z " fill="#1B3C63" transform="translate(278,193)"/>
<path d="M0 0 C1.22589844 0.01353516 1.22589844 0.01353516 2.4765625 0.02734375 C3.41628906 0.04474609 3.41628906 0.04474609 4.375 0.0625 C0.81404445 1.93751642 -2.7372886 3.01580847 -6.625 4.0625 C-6.625 3.0725 -6.625 2.0825 -6.625 1.0625 C-4.21954362 -0.14022819 -2.67503047 -0.03821472 0 0 Z " fill="#1C3B61" transform="translate(288.625,168.9375)"/>
<path d="M0 0 C0.99 0 1.98 0 3 0 C3 0.66 3 1.32 3 2 C3.66 2 4.32 2 5 2 C4.67 2.99 4.34 3.98 4 5 C1.9375 5.6875 1.9375 5.6875 0 6 C0 4.02 0 2.04 0 0 Z " fill="#A1CEE3" transform="translate(274,140)"/>
<path d="M0 0 C0.99 0 1.98 0 3 0 C3 1.98 3 3.96 3 6 C0.525 5.01 0.525 5.01 -2 4 C-2 3.34 -2 2.68 -2 2 C-1.34 2 -0.68 2 0 2 C0 1.34 0 0.68 0 0 Z " fill="#98CDE4" transform="translate(224,140)"/>
<path d="M0 0 C0.66 0 1.32 0 2 0 C2 1.32 2 2.64 2 4 C2.99 4 3.98 4 5 4 C5 4.66 5 5.32 5 6 C4.01 6 3.02 6 2 6 C2 6.66 2 7.32 2 8 C1.34 8 0.68 8 0 8 C0 5.36 0 2.72 0 0 Z " fill="#8DC7E0" transform="translate(254,131)"/>
<path d="M0 0 C0.99 0 1.98 0 3 0 C3 2.31 3 4.62 3 7 C2.01 7 1.02 7 0 7 C0 4.69 0 2.38 0 0 Z " fill="#E6EAEF" transform="translate(246,340)"/>
<path d="M0 0 C0.33 0 0.66 0 1 0 C1 4.29 1 8.58 1 13 C-0.65 12.01 -2.3 11.02 -4 10 C-2.68 9.67 -1.36 9.34 0 9 C0 6.03 0 3.06 0 0 Z " fill="#2D4565" transform="translate(247,230)"/>
<path d="M0 0 C4.455 0.99 4.455 0.99 9 2 C8.67 2.99 8.34 3.98 8 5 C5.69 4.67 3.38 4.34 1 4 C0.67 2.68 0.34 1.36 0 0 Z " fill="#173A65" transform="translate(191,231)"/>
<path d="M0 0 C1.98 0 3.96 0 6 0 C6 0.99 6 1.98 6 3 C3.03 3 0.06 3 -3 3 C-2.01 2.67 -1.02 2.34 0 2 C0 1.34 0 0.68 0 0 Z " fill="#C8DAE3" transform="translate(293,169)"/>
<path d="M0 0 C0.66 0 1.32 0 2 0 C2.33 2.97 2.66 5.94 3 9 C1.68 8.67 0.36 8.34 -1 8 C-0.67 5.36 -0.34 2.72 0 0 Z " fill="#0F396E" transform="translate(260,339)"/>
<path d="M0 0 C1.32 0 2.64 0 4 0 C3.67 1.32 3.34 2.64 3 4 C1.35 4.33 -0.3 4.66 -2 5 C-2 4.34 -2 3.68 -2 3 C-1.34 2.67 -0.68 2.34 0 2 C0 1.34 0 0.68 0 0 Z " fill="#244B7B" transform="translate(244,313)"/>
<path d="M0 0 C1.2065625 0.0309375 1.2065625 0.0309375 2.4375 0.0625 C2.4375 0.7225 2.4375 1.3825 2.4375 2.0625 C1.1175 2.0625 -0.2025 2.0625 -1.5625 2.0625 C-1.8925 4.3725 -2.2225 6.6825 -2.5625 9.0625 C-2.8925 9.0625 -3.2225 9.0625 -3.5625 9.0625 C-3.66015625 2.91015625 -3.66015625 2.91015625 -3.5625 1.0625 C-2.5625 0.0625 -2.5625 0.0625 0 0 Z " fill="#41628C" transform="translate(186.5625,307.9375)"/>
<path d="M0 0 C0.66 0 1.32 0 2 0 C2 2.31 2 4.62 2 7 C0.68 7 -0.64 7 -2 7 C-2.125 4.625 -2.125 4.625 -2 2 C-1.34 1.34 -0.68 0.68 0 0 Z " fill="#0C3463" transform="translate(224,236)"/>
<path d="M0 0 C-0.33 0.66 -0.66 1.32 -1 2 C-3.64 2 -6.28 2 -9 2 C-6.98558063 -2.02883874 -3.72407517 -0.90585612 0 0 Z " fill="#E6F0F4" transform="translate(326,234)"/>
<path d="M0 0 C0.66 0.33 1.32 0.66 2 1 C1.67 3.31 1.34 5.62 1 8 C-0.65 8 -2.3 8 -4 8 C-2.68 7.34 -1.36 6.68 0 6 C0 5.34 0 4.68 0 4 C-0.66 3.67 -1.32 3.34 -2 3 C-1.34 3 -0.68 3 0 3 C0 2.01 0 1.02 0 0 Z " fill="#305177" transform="translate(281,209)"/>
<path d="M0 0 C2.4750171 1.11431765 4.67883419 2.58150978 7 4 C7 4.66 7 5.32 7 6 C3.22454612 4.90931332 0.52956528 4.0916909 -2 1 C-1.34 0.67 -0.68 0.34 0 0 Z " fill="#C5D9E3" transform="translate(230,170)"/>
<path d="M0 0 C1.32 0.66 2.64 1.32 4 2 C3.67 2.33 3.34 2.66 3 3 C2.92773498 4.85287502 2.9161878 6.70833878 2.9375 8.5625 C2.94652344 9.57441406 2.95554688 10.58632812 2.96484375 11.62890625 C2.97644531 12.41136719 2.98804688 13.19382813 3 14 C2.67 14 2.34 14 2 14 C1.95101562 13.14535156 1.90203125 12.29070312 1.8515625 11.41015625 C1.77679688 10.30542969 1.70203125 9.20070312 1.625 8.0625 C1.55539063 6.96035156 1.48578125 5.85820312 1.4140625 4.72265625 C1.27742187 3.82417969 1.14078125 2.92570313 1 2 C0.34 1.67 -0.32 1.34 -1 1 C-0.67 0.67 -0.34 0.34 0 0 Z " fill="#193E6A" transform="translate(178,153)"/>
<path d="M0 0 C0.66 0 1.32 0 2 0 C2.66 0.66 3.32 1.32 4 2 C3.67 2.99 3.34 3.98 3 5 C1.35 5.33 -0.3 5.66 -2 6 C-2 4.68 -2 3.36 -2 2 C-1.34 2 -0.68 2 0 2 C0 1.34 0 0.68 0 0 Z " fill="#40618C" transform="translate(311,312)"/>
<path d="M0 0 C1.65 0.33 3.3 0.66 5 1 C5 1.99 5 2.98 5 4 C3.35 4 1.7 4 0 4 C0 2.68 0 1.36 0 0 Z " fill="#22497A" transform="translate(270,309)"/>
<path d="M0 0 C2 1 2 1 3 3 C2.34 3 1.68 3 1 3 C0.67 4.32 0.34 5.64 0 7 C-0.33 6.01 -0.66 5.02 -1 4 C-2.98 4.99 -2.98 4.99 -5 6 C-3.35 4.02 -1.7 2.04 0 0 Z " fill="#3B5E89" transform="translate(322,275)"/>
<path d="M0 0 C0.66 0.66 1.32 1.32 2 2 C1.67 2.99 1.34 3.98 1 5 C-0.98 5 -2.96 5 -5 5 C-3.35 3.35 -1.7 1.7 0 0 Z " fill="#1F3D64" transform="translate(257,245)"/>
<path d="M0 0 C0 0.66 0 1.32 0 2 C-3.465 3.485 -3.465 3.485 -7 5 C-7.33 4.34 -7.66 3.68 -8 3 C-7.34 3 -6.68 3 -6 3 C-6 2.34 -6 1.68 -6 1 C-4 0 -4 0 0 0 Z " fill="#1D3D62" transform="translate(267,233)"/>
<path d="M0 0 C0 0.99 0 1.98 0 3 C-2.97 2.67 -5.94 2.34 -9 2 C-5.23312136 0.11656068 -3.97041037 -0.22057835 0 0 Z " fill="#C3D6E0" transform="translate(299,201)"/>
<path d="M0 0 C4.51720311 -0.36625971 4.51720311 -0.36625971 6.8125 1.375 C8 3 8 3 8 5 C6.35 5 4.7 5 3 5 C3 4.01 3 3.02 3 2 C2.01 1.34 1.02 0.68 0 0 Z " fill="#0F335B" transform="translate(212,175)"/>
<path d="M0 0 C2.64 0.33 5.28 0.66 8 1 C8 1.99 8 2.98 8 4 C5.36 3.34 2.72 2.68 0 2 C0 1.34 0 0.68 0 0 Z " fill="#CCDCE7" transform="translate(212,172)"/>
<path d="M0 0 C0.928125 0.20625 1.85625 0.4125 2.8125 0.625 C1.3275 2.11 1.3275 2.11 -0.1875 3.625 C-2.1675 2.965 -4.1475 2.305 -6.1875 1.625 C-3.1875 -0.375 -3.1875 -0.375 0 0 Z " fill="#1F3E68" transform="translate(294.1875,164.375)"/>
<path d="M0 0 C0.66 0.33 1.32 0.66 2 1 C1.34 2.32 0.68 3.64 0 5 C-0.66 5 -1.32 5 -2 5 C-2.33 5.99 -2.66 6.98 -3 8 C-3.66 7.01 -4.32 6.02 -5 5 C-3.35 3.35 -1.7 1.7 0 0 Z " fill="#2A476D" transform="translate(260,160)"/>
<path d="M0 0 C0.99 0.33 1.98 0.66 3 1 C3 1.66 3 2.32 3 3 C1.68 3 0.36 3 -1 3 C-1 4.98 -1 6.96 -1 9 C-1.33 9 -1.66 9 -2 9 C-2 6.36 -2 3.72 -2 1 C-1.34 0.67 -0.68 0.34 0 0 Z " fill="#6F88A8" transform="translate(110,338)"/>
<path d="M0 0 C0.66 0.33 1.32 0.66 2 1 C0.98590222 3.53524446 0.38502734 4.77139002 -2 6.1875 C-2.66 6.455625 -3.32 6.72375 -4 7 C-4.99 7.495 -4.99 7.495 -6 8 C-4.55746343 4.63408134 -2.66735273 2.48952921 0 0 Z " fill="#244B7B" transform="translate(280,274)"/>
<path d="M0 0 C-0.66 0 -1.32 0 -2 0 C-2 0.66 -2 1.32 -2 2 C-4.97 2 -7.94 2 -11 2 C-6.98764085 -0.6749061 -4.6342454 -1.48957888 0 0 Z " fill="#BBCCD7" transform="translate(303,237)"/>
<path d="M0 0 C0 0.99 0 1.98 0 3 C-4.455 2.01 -4.455 2.01 -9 1 C-9 0.67 -9 0.34 -9 0 C-3.375 -1.125 -3.375 -1.125 0 0 Z " fill="#D8E2E7" transform="translate(220,146)"/>
<path d="M0 0 C0.99 0 1.98 0 3 0 C2.67 1.32 2.34 2.64 2 4 C1.34 4 0.68 4 0 4 C-0.33 4.66 -0.66 5.32 -1 6 C-1.625 4.125 -1.625 4.125 -2 2 C-1.34 1.34 -0.68 0.68 0 0 Z " fill="#BFCAD8" transform="translate(192,338)"/>
<path d="M0 0 C0.66 0.33 1.32 0.66 2 1 C1.6875 2.9375 1.6875 2.9375 1 5 C0.01 5.33 -0.98 5.66 -2 6 C-2 4.35 -2 2.7 -2 1 C-1.34 0.67 -0.68 0.34 0 0 Z " fill="#889CB7" transform="translate(293,309)"/>
<path d="M0 0 C1.32 0 2.64 0 4 0 C4 0.66 4 1.32 4 2 C3.34 2 2.68 2 2 2 C2 3.65 2 5.3 2 7 C0.4375 5.75 0.4375 5.75 -1 4 C-0.6875 1.8125 -0.6875 1.8125 0 0 Z " fill="#3D5F8A" transform="translate(289,308)"/>
<path d="M0 0 C0 0.66 0 1.32 0 2 C-2.70879335 3.35439668 -5.00933268 3.06501451 -8 3 C-5.53387212 -0.1151089 -3.89156016 -0.31553191 0 0 Z " fill="#0C3562" transform="translate(249,250)"/>
<path d="M0 0 C0.33 0.99 0.66 1.98 1 3 C-2.47325181 4.1577506 -5.36067448 4.06866652 -9 4 C-9 3.67 -9 3.34 -9 3 C-6.03 2.01 -3.06 1.02 0 0 Z " fill="#325071" transform="translate(323,230)"/>
<path d="M0 0 C0.99 0.33 1.98 0.66 3 1 C2.67 1.66 2.34 2.32 2 3 C2.66 3 3.32 3 4 3 C4 3.99 4 4.98 4 6 C2.68 6 1.36 6 0 6 C0 4.02 0 2.04 0 0 Z " fill="#22446C" transform="translate(262,219)"/>
<path d="M0 0 C1.65 0 3.3 0 5 0 C5 1.98 5 3.96 5 6 C4.01 5.67 3.02 5.34 2 5 C2 4.01 2 3.02 2 2 C1.34 1.34 0.68 0.68 0 0 Z " fill="#203C5F" transform="translate(327,208)"/>
<path d="M0 0 C0.66 0 1.32 0 2 0 C2 2.64 2 5.28 2 8 C1.34 8 0.68 8 0 8 C-0.98120464 4.94736336 -0.98120464 3.05263664 0 0 Z " fill="#F2FBFC" transform="translate(173,167)"/>
<path d="M0 0 C-3.08888522 2.05925681 -3.70935927 2.2390374 -7.1875 2.125 C-9.0746875 2.063125 -9.0746875 2.063125 -11 2 C-10.67 1.34 -10.34 0.68 -10 0 C-6.35346727 -1.11421833 -3.66708957 -0.94296589 0 0 Z " fill="#B2C3D2" transform="translate(291,164)"/>
<path d="M0 0 C0.33 0 0.66 0 1 0 C1.625 3.375 1.625 3.375 2 7 C1.34 7.66 0.68 8.32 0 9 C-1.32 7.68 -2.64 6.36 -4 5 C-3.01 5 -2.02 5 -1 5 C-0.67 3.35 -0.34 1.7 0 0 Z " fill="#D9EAF2" transform="translate(244,155)"/>
<path d="M0 0 C0.33 0.66 0.66 1.32 1 2 C0.01 2.495 0.01 2.495 -1 3 C-1.65213292 5.02463255 -1.65213292 5.02463255 -2 7 C-2.66 7 -3.32 7 -4 7 C-4 5.02 -4 3.04 -4 1 C-2.68 0.67 -1.36 0.34 0 0 Z " fill="#85C2DD" transform="translate(258,152)"/>
<path d="M0 0 C1.32 0 2.64 0 4 0 C4.33 1.32 4.66 2.64 5 4 C2.69 3.34 0.38 2.68 -2 2 C-1.34 1.34 -0.68 0.68 0 0 Z " fill="#D8E6EA" transform="translate(177,150)"/>
</svg>
